<?xml version="1.0" encoding="UTF-8"?>
<svg width="170px" height="53px" viewBox="0 0 170 53" version="1.1" xmlns="http://www.w3.org/2000/svg" xmlns:xlink="http://www.w3.org/1999/xlink">
    <title>myTodosDark</title>
    <g id="Page-1" stroke="none" stroke-width="1" fill="none" fill-rule="evenodd" opacity="0.704488845">
        <path d="M8.3903528,-0.00487311149 C9.1325403,-0.00487311149 9.77707155,0.154632097 10.3239465,0.473642514 C10.8708215,0.79265293 11.2972538,1.18978835 11.6032434,1.66504876 C11.909233,2.14030918 12.1533736,2.73926751 12.3356653,3.46192376 C12.517957,4.18458001 12.6351445,4.87142897 12.6872278,5.52247064 C12.7306306,6.06500536 12.7559489,6.66631468 12.7631827,7.32639859 L12.7653528,7.72950189 C12.7653528,9.02012689 12.6596965,11.1330331 12.448384,14.0682206 L12.1577139,18.0056521 C11.9117648,21.4760658 11.7562382,24.2095366 11.691134,26.2060644 C12.4593632,21.5185644 13.5531132,17.2086686 14.972384,13.2763769 C16.3916549,9.34408522 17.9704309,6.23536126 19.7087122,3.95020501 C21.4469934,1.66504876 23.1299361,0.522470639 24.7575403,0.522470639 C26.3591028,0.522470639 27.5212122,1.33301751 28.2438684,2.95411126 C28.9351048,4.50472268 29.2957499,6.95775907 29.3258037,10.3132204 L29.3263581,11.2244995 C29.3134037,13.2583404 29.2162457,16.4878724 29.034884,20.9130956 C29.9463424,17.6578873 31.0921757,14.5101008 32.472384,11.4697363 C33.8525924,8.42937168 35.3206913,5.90333001 36.8766809,3.89161126 C38.4326705,1.87989251 39.816134,0.874033139 41.0270715,0.874033139 C42.1729049,0.874033139 43.002983,1.31023106 43.5173059,2.18262689 C44.0316288,3.05502272 44.2887903,4.45476231 44.2887903,6.38184564 C44.2887903,8.58308985 44.1261906,11.4056971 43.8009913,14.8496673 L43.7419153,15.4638769 C43.2471236,20.6071061 42.9997278,25.1318456 42.9997278,29.0380956 C42.9997278,31.043304 43.1559778,32.9248144 43.4684778,34.6826269 C43.7809778,36.4404394 44.2236861,37.605804 44.7966028,38.1787206 C44.861707,38.230804 44.9203007,38.2373144 44.972384,38.1982519 C45.4541549,37.9508561 45.988009,37.2802831 46.5739465,36.1865331 C47.159884,35.0927831 47.7653528,33.637705 48.3903528,31.8212988 L48.8340784,30.523081 C49.2062572,29.4260758 49.5191189,28.4809803 49.7726635,27.6877945 L50.1710121,26.4123534 C50.3137229,25.9458578 50.4653519,25.4411414 50.6258992,24.8982041 C50.6070511,24.4908251 50.597384,24.0676683 50.597384,23.6279394 C50.597384,21.7268977 50.7601445,19.8649186 51.0856653,18.0420019 C51.1247278,17.8206477 51.2712122,17.62208 51.5251184,17.4462988 C51.7790247,17.2705175 52.0687382,17.1826269 52.394259,17.1826269 C53.0062382,17.1826269 53.4619674,17.3649186 53.7614465,17.7295019 C53.9665247,17.9915462 54.0519739,18.268544 54.0177942,18.5604955 L53.9958215,18.6865331 C53.6182174,20.7438248 53.4424361,22.8076269 53.4684778,24.8779394 C53.4684778,26.0367936 53.5693893,27.1305436 53.7712122,28.1591894 C53.9730351,29.1878352 54.191134,29.8128352 54.425509,30.0341894 C54.4906132,30.0992936 54.581759,30.105804 54.6989465,30.0537206 C55.363009,29.715179 56.1475143,28.7451269 57.0524622,27.1435644 C57.9574101,25.5420019 58.7581913,23.8851008 59.4548059,22.1728613 C60.1514205,20.4606217 60.7275924,18.8753352 61.1833215,17.4170019 L61.1833215,17.3974706 L61.2028528,17.3584081 C61.2549361,17.2542415 61.300509,17.1761165 61.3395715,17.1240331 C61.5739465,16.8115331 61.8994674,16.6422623 62.316134,16.6162206 C62.6937382,16.6292415 63.0387903,16.746429 63.3512903,16.9677831 C63.6637903,17.1891373 63.8851445,17.4821061 64.0153528,17.8466894 C64.783582,20.2425227 65.2002486,23.2959081 65.2653528,27.0068456 C67.8434778,25.340179 69.7184778,23.7255956 70.8903528,22.1630956 C71.1247278,21.8636165 71.424207,21.8440852 71.7887903,22.1045019 C72.1663945,22.3779394 72.2510299,22.6709081 72.0426965,22.9834081 C70.6885299,25.0016373 68.4294153,26.9938248 65.2653528,28.9599706 C65.1481653,35.5485123 64.0283736,40.9456477 61.9059778,45.1513769 C60.7601445,47.4170019 59.3831913,49.1357519 57.7751184,50.3076269 C56.1670455,51.4795019 54.3799361,52.0654394 52.4137903,52.0654394 C51.4372278,52.0654394 50.5550663,51.84083 49.7673059,51.3916113 C48.9795455,50.9423925 48.3545455,50.3629654 47.8923059,49.65333 C47.4300663,48.9436946 47.0752486,48.1917415 46.8278528,47.3974706 C46.580457,46.6031998 46.456759,45.8284602 46.456759,45.0732519 C46.456759,44.0446061 46.6032434,43.0485123 46.8962122,42.0849706 C47.1891809,41.121429 47.5374882,40.2685644 47.941134,39.5263769 C48.3447799,38.7841894 48.9437382,38.0094498 49.738009,37.2021581 C50.5322799,36.3948665 51.2386601,35.730804 51.8571497,35.2099706 C52.4756393,34.6891373 53.3480351,34.0673925 54.4743372,33.3447363 L55.1227747,32.931455 C55.847384,32.4729915 56.4603398,32.0974706 56.9616419,31.8048925 L58.397677,30.9887792 C58.8810755,30.7169693 59.4385299,30.4052831 60.0700403,30.0537206 L62.472384,28.7060644 L62.472384,28.1396581 C62.472384,25.5875748 62.2575403,23.0485123 61.8278528,20.5224706 L61.4783926,21.4799088 C60.2047471,24.908457 59.0158953,27.434363 57.9118372,29.0576269 C56.7074101,30.8284602 55.4736861,31.7138769 54.2106653,31.7138769 C53.0778528,31.7138769 52.1924361,30.9977311 51.5544153,29.5654394 C51.4428881,29.3150722 51.3411085,29.0479948 51.2490764,28.7642073 L50.9951934,29.6239415 C50.9534646,29.7628748 50.9120144,29.8996261 50.8708215,30.0341894 C50.284884,31.9482519 49.659884,33.6800227 48.9958215,35.2295019 C48.331759,36.7789811 47.6416549,37.9280696 46.925509,38.6767675 C46.2093632,39.4254654 45.4476445,39.7998144 44.6403528,39.7998144 C43.8721236,39.7998144 43.1950403,39.49708 42.6091028,38.8916113 C42.0231653,38.2861425 41.5706913,37.5374446 41.2516809,36.6455175 C40.9326705,35.7535904 40.675509,34.6891373 40.4801965,33.4521581 C40.284884,32.215179 40.1579309,31.0791113 40.0993372,30.043955 C40.0407434,29.0087988 40.0114465,27.9313248 40.0114465,26.8115331 C40.0114465,23.2177831 40.2553879,18.6578342 40.7432705,13.1316862 L41.1890403,8.26384564 C41.3544986,6.34563731 41.4372278,5.11934564 41.4372278,4.58497064 L41.4318025,4.15582567 C41.413718,3.48489107 41.3504222,3.03549147 41.2419153,2.80762689 L41.2028528,2.74903314 C41.1637903,2.74903314 41.1312382,2.76205397 41.1051965,2.78809564 C40.0114465,3.51726231 38.924207,4.62403314 37.8434778,6.10840814 C36.7627486,7.59278314 35.7764205,9.26270501 34.8844934,11.1181738 C33.9925663,12.9736425 33.1364465,15.0374446 32.316134,17.30958 C31.4958215,19.5817154 30.7699101,21.84083 30.1383997,24.0869238 C29.5068893,26.3330175 28.9437382,28.6149186 28.4489465,30.9326269 L28.4465051,30.9594824 L28.4391809,31.0009863 C28.4326705,31.0335383 28.4294153,31.0563248 28.4294153,31.0693456 C28.377332,31.4860123 28.2178268,31.8050227 27.9508997,32.0263769 C27.6839726,32.2477311 27.3877486,32.3453873 27.0622278,32.3193456 C26.7236861,32.293304 26.4339726,32.1468196 26.1930872,31.8798925 C25.9522018,31.6129654 25.831759,31.2255956 25.831759,30.7177831 L25.8404396,29.6207779 C25.8682174,27.6520279 25.9626618,24.6582779 26.1237729,20.6395279 L26.2730785,16.8698882 C26.3902081,13.7210745 26.4513192,11.4160398 26.4564118,9.95478401 L26.456759,9.76075189 C26.456759,8.19825189 26.3883997,6.8343196 26.2516809,5.66895501 C26.1149622,4.50359043 25.9489465,3.64747064 25.753634,3.10059564 C25.5583215,2.55372064 25.3434778,2.28028314 25.1091028,2.28028314 C24.0544153,2.28028314 22.8792851,3.09083001 21.5837122,4.71192376 C20.2881393,6.33301751 19.034884,8.53679356 17.8239465,11.3232519 C16.378634,14.6956477 15.1611861,18.5953873 14.1716028,23.0224706 C13.2581413,27.1090091 12.5943099,31.4118937 12.1801087,35.9311245 L12.081759,37.0654394 C12.0166549,37.9378352 11.8799361,38.5367936 11.6716028,38.8623144 C11.3981653,39.2529394 11.0270715,39.4482519 10.5583215,39.4482519 C10.363009,39.4612727 10.190483,39.4091894 10.0407434,39.2920019 C9.89100384,39.1748144 9.78358196,39.0250748 9.7184778,38.8427831 C9.1059778,36.8177831 8.7874778,33.7427831 8.7629778,29.6177831 L8.76144655,29.0966894 C8.76144655,24.6696061 8.98555998,19.6431496 9.43378684,14.01732 L9.72246377,10.5502838 C9.86702159,8.73953177 9.9435522,7.45410093 9.9520556,6.69399133 L9.9528528,6.55762689 C9.9528528,3.34148106 9.52967571,1.73340814 8.68332155,1.73340814 C7.74582155,1.73340814 6.53813926,2.39096022 5.06027467,3.70606439 C3.58241009,5.02116856 2.62863405,6.34278314 2.19894655,7.67090814 C2.19026599,7.67090814 2.18737247,7.67380166 2.19026599,7.67958869 L2.19894655,7.69043939 C2.32915488,7.88575189 2.34868613,8.08106439 2.2575403,8.27637689 C2.12733196,8.52377272 1.92550905,8.64747064 1.65207155,8.64747064 C1.36561321,8.64747064 1.1247278,8.54004876 0.929415298,8.32520501 C0.734102798,8.11036126 0.636446548,7.84017897 0.636446548,7.51465814 C0.636446548,6.68132481 1.09217571,5.6624446 2.00363405,4.45801751 C2.91509238,3.25359043 3.99256634,2.20866856 5.23605592,1.32325189 C6.47954551,0.437835222 7.5309778,-0.00487311149 8.3903528,-0.00487311149 Z M62.4137903,30.6396581 L61.5641809,31.1181738 L60.9218198,31.4740765 C60.8357376,31.5210962 60.7601445,31.5619672 60.6950403,31.5966894 L58.9864604,32.5619261 C58.6557775,32.7505355 58.3577622,32.9218866 58.0924146,33.0759793 L57.550509,33.3935644 C56.847384,33.8102311 55.9196497,34.3929133 54.7673059,35.1416113 C53.6149622,35.8903092 52.7393111,36.5641373 52.1403528,37.1630956 C51.5413945,37.762054 50.9131393,38.4684342 50.2555872,39.2822363 C49.5980351,40.0960383 49.1292851,40.9554133 48.8493372,41.8603613 C48.5693893,42.7653092 48.4294153,43.7321061 48.4294153,44.7607519 C48.4294153,45.6591894 48.5986861,46.5413508 48.9372278,47.4072363 C49.2757695,48.2731217 49.7673059,48.9925227 50.4118372,49.5654394 C51.0563684,50.1383561 51.769259,50.4248144 52.550509,50.4248144 C54.2822799,50.4248144 55.8708215,49.575205 57.316134,47.8759863 C58.7614465,46.1767675 59.9300663,43.8232519 60.8219934,40.8154394 C61.7139205,37.8076269 62.2445195,34.4156998 62.4137903,30.6396581 Z M125.948947,0.190439389 C127.238009,0.190439389 128.214572,0.737314389 128.878634,1.83106439 C129.542697,2.92481439 129.874728,4.51986647 129.874728,6.61622064 C129.874728,8.24382481 129.650118,9.91049147 129.2009,11.6162206 C128.751681,13.3219498 128.136447,14.9072363 127.355197,16.37208 C126.573947,17.8369238 125.597384,19.1162206 124.425509,20.2099706 C123.253634,21.3037206 121.997124,22.0263769 120.655978,22.3779394 C120.773165,24.4352311 121.030327,26.2679133 121.427462,27.8759863 C121.824598,29.4840592 122.293348,30.7373144 122.833712,31.6357519 C123.374077,32.5341894 123.924207,33.2112727 124.484103,33.6670019 C125.043999,34.1227311 125.584363,34.3505956 126.105197,34.3505956 C127.472384,34.3505956 128.89491,33.2503352 130.372775,31.0498144 C131.525197,29.3338732 132.461865,27.3210226 133.182778,25.0112627 C133.16419,24.7160997 133.155978,24.418139 133.155978,24.1162206 C133.155978,22.8662206 133.273165,21.9905696 133.50754,21.4892675 C133.741915,20.9879654 134.145561,20.7373144 134.718478,20.7373144 C135.38254,20.7373144 135.864311,20.9196061 136.16379,21.2841894 C136.16379,21.2972102 136.170301,21.3102311 136.183322,21.3232519 L136.222384,21.3623144 C136.365613,21.5706477 136.417697,21.7985123 136.378634,22.0459081 C136.222384,22.9834081 136.144259,23.9209081 136.144259,24.8584081 C136.144259,26.0042415 136.300509,27.1403092 136.613009,28.2666113 C136.925509,29.3929133 137.329155,30.3076269 137.823947,31.0107519 C138.318738,31.7138769 138.82004,32.0654394 139.327853,32.0654394 C140.07004,32.0654394 140.835014,31.2841894 141.622775,29.7216894 C142.410535,28.1591894 142.902072,26.3818456 143.097384,24.3896581 C141.691134,24.2203873 140.389051,23.8753352 139.191134,23.3545019 C137.993217,22.8336686 137.029676,22.1435644 136.300509,21.2841894 C135.349988,20.1774186 134.887749,18.9143977 134.91379,17.4951269 C134.91379,16.2711686 135.278374,15.27833 136.00754,14.5166113 C136.736707,13.7548925 137.680717,13.3740331 138.839572,13.3740331 C140.623426,13.3740331 142.104546,14.2757258 143.282931,16.0791113 C144.461316,17.8824967 145.06353,20.1774186 145.089572,22.9638769 L145.206759,22.9638769 C146.118217,22.9638769 147.120822,22.8727311 148.214572,22.6904394 C148.893282,22.5773209 149.504306,22.444147 150.047643,22.2909176 C149.866319,21.8127486 149.777072,21.3142448 149.777072,20.7959081 C149.777072,19.8584081 150.151421,18.9176529 150.900118,17.9736425 C151.648816,17.0296321 152.609103,16.2581477 153.780978,15.6591894 C154.952853,15.0602311 156.124728,14.7607519 157.296603,14.7607519 C158.481499,14.7607519 159.516655,15.0830175 160.402072,15.7275488 C161.287488,16.37208 161.730197,17.1305436 161.730197,18.0029394 C161.730197,18.4977311 161.606499,18.9990331 161.359103,19.5068456 C161.111707,20.0146581 160.825249,20.2685644 160.499728,20.2685644 C160.304415,20.2685644 160.128634,20.1774186 159.972384,19.9951269 C159.790092,19.7477311 159.738009,19.4677831 159.816134,19.1552831 C159.816134,19.1162206 159.822644,19.0706477 159.835665,19.0185644 L159.874728,18.8818456 C159.939832,18.6344498 159.985405,18.3610123 160.011447,18.0615331 C160.011447,17.7490331 159.871473,17.4723404 159.591525,17.231455 C159.311577,16.9905696 158.924207,16.8701269 158.429415,16.8701269 C157.778374,16.8701269 157.000379,17.1207779 156.095431,17.62208 C155.190483,18.1233821 154.396212,18.7711686 153.712618,19.5654394 C153.029025,20.3597102 152.687228,21.1149186 152.687228,21.8310644 C152.687228,22.1956477 152.778374,22.5374446 152.960665,22.856455 C153.142957,23.1754654 153.439181,23.4879654 153.849337,23.793955 C154.259493,24.0999446 154.627332,24.3473404 154.952853,24.5361425 L155.379489,24.777384 C155.541842,24.8674108 155.724337,24.9670507 155.926974,25.0763036 L157.155978,25.7347753 C157.721082,26.0437597 158.158582,26.2985123 158.468478,26.4990331 L158.97629,26.1865331 C160.734103,25.0667415 162.521212,24.1129654 164.337618,23.325205 C166.154025,22.5374446 167.615613,22.0459081 168.722384,21.8505956 C168.943738,21.7985123 169.152072,21.8278092 169.347384,21.9384863 C169.542697,22.0491633 169.666394,22.215179 169.718478,22.4365331 C169.770561,22.6318456 169.75754,22.7946061 169.679415,22.9248144 C169.588269,23.0810644 169.458061,23.1787206 169.28879,23.2177831 C165.655978,24.3896581 162.491915,25.8349706 159.796603,27.5537206 C160.682019,28.4130956 161.124728,29.3701269 161.124728,30.4248144 C161.124728,31.8180436 160.535535,33.1071061 159.35715,34.2920019 C158.178764,35.4768977 156.756238,36.0693456 155.089572,36.0693456 C154.295301,36.0693456 153.650769,35.8447363 153.155978,35.3955175 C152.661186,34.9462988 152.41379,34.4352311 152.41379,33.8623144 C152.41379,31.9873144 153.885144,29.9235123 156.827853,27.6709081 C156.437228,27.4365331 156.00754,27.2021581 155.53879,26.9677831 C155.499728,26.9417415 155.437879,26.9091894 155.353243,26.8701269 L155.118868,26.762705 C155.047254,26.7301529 154.978894,26.6943456 154.91379,26.6552831 C154.223686,26.2906998 153.614962,25.9326269 153.087618,25.5810644 C152.560275,25.2295019 152.023165,24.80958 151.47629,24.3212988 C151.23018,24.1015572 151.009781,23.8706081 150.815093,23.6284514 C149.331529,24.1789458 147.396464,24.4653327 145.011447,24.4873144 C144.920301,25.5550227 144.721733,26.6194758 144.415743,27.6806738 C144.109754,28.7418717 143.722384,29.7249446 143.253634,30.6298925 C142.784884,31.5348404 142.195691,32.2705175 141.486056,32.8369238 C140.776421,33.40333 140.011447,33.6865331 139.191134,33.6865331 C138.097384,33.6865331 137.088269,33.2601008 136.16379,32.4072363 C135.239311,31.5543717 134.506889,30.3922623 133.966525,28.9209081 C133.864398,28.6428292 133.771923,28.3600994 133.689098,28.0727186 C133.467763,28.6056342 133.218147,29.1620121 132.941134,29.7412206 C132.368217,30.9391373 131.756238,31.9710383 131.105197,32.8369238 C130.454155,33.7028092 129.666394,34.4287206 128.741915,35.0146581 C127.817436,35.6005956 126.847384,35.8935644 125.831759,35.8935644 C124.711967,35.8935644 123.660535,35.5354915 122.677462,34.8193456 C121.694389,34.1031998 120.838269,33.074554 120.109103,31.7334081 C119.35715,30.3488595 118.791196,28.7345475 118.41124,26.8904719 L118.311447,26.3821269 L117.931966,27.4580574 C117.772528,27.9012972 117.625844,28.2977683 117.491915,28.6474706 C117.25754,29.2594498 116.987358,29.8844498 116.681368,30.5224706 C116.375379,31.1604915 116.079155,31.668304 115.792697,32.0459081 C115.506238,32.4235123 115.180717,32.7327571 114.816134,32.9736425 C114.451551,33.2145279 114.073947,33.3349706 113.683322,33.3349706 C112.615613,33.3349706 111.694389,32.6871842 110.91965,31.3916113 C110.14491,30.0960383 109.75754,28.5628352 109.75754,26.7920019 C109.75754,25.7272028 109.865041,24.7504199 110.080043,23.8616533 C108.708146,24.2605367 107.011317,24.4687024 104.991915,24.4873144 C104.900769,25.5550227 104.702202,26.6194758 104.396212,27.6806738 C104.090223,28.7418717 103.702853,29.7249446 103.234103,30.6298925 C102.765353,31.5348404 102.17616,32.2705175 101.466525,32.8369238 C100.756889,33.40333 99.9919153,33.6865331 99.1716028,33.6865331 C98.0778528,33.6865331 97.0687382,33.2601008 96.144259,32.4072363 C95.2197799,31.5543717 94.487358,30.3922623 93.9469934,28.9209081 L93.8534465,28.6541269 L93.7730059,28.9607678 C93.5625467,29.7452066 93.3568707,30.4220242 93.1559778,30.9912206 C92.9216028,31.6552831 92.6514205,32.3128352 92.3454309,32.9638769 C92.0394413,33.6149186 91.7269413,34.1357519 91.4079309,34.5263769 C91.0889205,34.9170019 90.7275924,35.2327571 90.3239465,35.4736425 C89.9203007,35.7145279 89.4971236,35.8349706 89.0544153,35.8349706 C87.283582,35.8349706 85.8675663,34.3929133 84.8063684,31.5087988 C83.7451705,28.6246842 83.2145715,24.7607519 83.2145715,19.9170019 C83.2145715,17.6774186 83.3122278,15.3857519 83.5075403,13.0420019 C81.814832,13.2373144 80.2458215,13.3414811 78.800509,13.3545019 C77.0426965,13.3545019 75.4053268,13.1656998 73.8883997,12.7880956 C72.3714726,12.4104915 71.4111861,11.8310644 71.0075403,11.0498144 C70.9033736,10.8805436 70.8708215,10.6982519 70.909884,10.5029394 C70.9489465,10.3076269 71.0531132,10.1513769 71.222384,10.0341894 C71.3395715,9.94304356 71.4697799,9.90723626 71.613009,9.92676751 C71.7562382,9.94629876 71.8799361,10.0081477 71.9841028,10.1123144 C72.4528528,10.6461686 73.377332,11.0823665 74.7575403,11.4209081 C76.0205611,11.7073665 77.3226445,11.8505956 78.6637903,11.8505956 C80.2783736,11.8375748 81.9450403,11.7268977 83.6637903,11.5185644 L83.7489682,10.7116796 C84.0632767,7.83814447 84.3994674,5.90007481 84.7575403,4.89747064 C84.9658736,4.31153314 85.3499882,4.01856439 85.909884,4.01856439 C86.4828007,4.01856439 86.9059778,4.18783522 87.1794153,4.52637689 C87.4007695,4.81283522 87.472384,5.13184564 87.394259,5.48340814 C87.081759,7.01986647 86.7953007,8.90788731 86.534884,11.1474706 C87.4984257,11.0172623 88.4359257,10.8805436 89.347384,10.7373144 L91.1979361,10.4748632 C93.3605021,10.1810807 94.8334952,10.0341894 95.6169153,10.0341894 C97.9736861,10.0341894 99.5361861,10.574554 100.304415,11.6552831 C100.512749,11.9287206 100.545301,12.2216894 100.402072,12.5341894 C100.297905,12.7815852 100.109103,12.918304 99.8356653,12.9443456 C99.5361861,12.9443456 99.314832,12.8141373 99.1716028,12.5537206 C98.7288945,11.902679 97.6025924,11.5771581 95.7926965,11.5771581 L95.5456089,11.5814342 C94.47035,11.6156428 92.3521917,11.8551029 89.191134,12.2998144 L88.4640932,12.405044 L86.378634,12.6904394 C86.1051965,15.3857519 85.9684778,18.0029394 85.9684778,20.5420019 C85.9684778,22.9378352 86.1247278,25.200205 86.4372278,27.3291113 C86.7497278,29.4580175 87.1663945,31.1572363 87.6872278,32.4267675 C88.2080611,33.6962988 88.7614465,34.3310644 89.347384,34.3310644 C89.9463424,34.3310644 90.6657434,33.2015071 91.5055872,30.9423925 C92.1269304,29.2710274 92.6823492,27.3448731 93.1718434,25.1639297 C93.1477948,24.8205843 93.1364465,24.471137 93.1364465,24.1162206 C93.1364465,22.8662206 93.253634,21.9905696 93.488009,21.4892675 C93.722384,20.9879654 94.1260299,20.7373144 94.6989465,20.7373144 C95.363009,20.7373144 95.8447799,20.9196061 96.144259,21.2841894 C96.144259,21.2972102 96.1507695,21.3102311 96.1637903,21.3232519 L96.2028528,21.3623144 C96.346082,21.5706477 96.3981653,21.7985123 96.3591028,22.0459081 C96.2028528,22.9834081 96.1247278,23.9209081 96.1247278,24.8584081 C96.1247278,26.0042415 96.2809778,27.1403092 96.5934778,28.2666113 C96.9059778,29.3929133 97.3096236,30.3076269 97.8044153,31.0107519 C98.299207,31.7138769 98.800509,32.0654394 99.3083215,32.0654394 C100.050509,32.0654394 100.815483,31.2841894 101.603243,29.7216894 C102.391004,28.1591894 102.88254,26.3818456 103.077853,24.3896581 C101.671603,24.2203873 100.369519,23.8753352 99.1716028,23.3545019 C97.9736861,22.8336686 97.0101445,22.1435644 96.2809778,21.2841894 C95.330457,20.1774186 94.8682174,18.9143977 94.894259,17.4951269 C94.894259,16.2711686 95.2588424,15.27833 95.988009,14.5166113 C96.7171757,13.7548925 97.6611861,13.3740331 98.8200403,13.3740331 C100.603894,13.3740331 102.085014,14.2757258 103.2634,16.0791113 C104.441785,17.8824967 105.043999,20.1774186 105.07004,22.9638769 L105.187228,22.9638769 C106.098686,22.9638769 107.10129,22.8727311 108.19504,22.6904394 C109.177796,22.5266468 110.018636,22.3208055 110.717562,22.0729154 C110.892321,21.7074483 111.093908,21.3637004 111.32004,21.0400488 C112.361707,19.5491633 113.709363,18.8037206 115.363009,18.8037206 C116.261447,18.8037206 117.09478,19.0315852 117.863009,19.4873144 C117.980197,14.4742936 118.728894,10.1253352 120.109103,6.44043939 C120.864311,4.42221022 121.746473,2.87598626 122.755587,1.80176751 C123.764702,0.727548764 124.829155,0.190439389 125.948947,0.190439389 Z M158.116915,28.7451269 C155.708061,30.6201269 154.503634,32.3909602 154.503634,34.0576269 C154.503634,34.1357519 154.523165,34.1943456 154.562228,34.2334081 C154.588269,34.2594498 154.633842,34.2724706 154.698947,34.2724706 C155.597384,34.2073665 156.463269,33.71583 157.296603,32.7978613 C158.129936,31.8798925 158.546603,30.9586686 158.546603,30.0341894 C158.546603,29.5393977 158.403374,29.1097102 158.116915,28.7451269 Z M115.792697,20.4443456 C115.102592,20.4443456 114.392957,21.0335383 113.66379,22.2119238 C112.934624,23.3903092 112.57004,25.027679 112.57004,27.1240331 C112.57004,28.1005956 112.696993,29.0087988 112.9509,29.8486425 C113.204806,30.6884863 113.50103,31.2972102 113.839572,31.6748144 C113.878634,31.7138769 113.924207,31.7138769 113.97629,31.6748144 C114.653374,31.0758561 115.353243,29.8291113 116.0759,27.93458 C116.798556,26.0400488 117.387749,24.0576269 117.843478,21.9873144 C117.635144,21.5706477 117.3259,21.2093196 116.915743,20.90333 C116.505587,20.5973404 116.131238,20.4443456 115.792697,20.4443456 Z M99.0739465,15.0537206 C98.5140507,15.0537206 98.0583215,15.3336686 97.706759,15.8935644 C97.3551965,16.4534602 97.1794153,17.0849706 97.1794153,17.7880956 C97.1794153,19.1162206 97.7458215,20.2164811 98.878634,21.0888769 C100.011447,21.9612727 101.437228,22.5341894 103.155978,22.8076269 C103.142957,21.6097102 102.911837,20.3955175 102.462618,19.1650488 C102.0134,17.93458 101.473035,16.9417415 100.841525,16.1865331 C100.210014,15.4313248 99.6208215,15.0537206 99.0739465,15.0537206 Z M139.093478,15.0537206 C138.533582,15.0537206 138.077853,15.3336686 137.72629,15.8935644 C137.374728,16.4534602 137.198947,17.0849706 137.198947,17.7880956 C137.198947,19.1162206 137.765353,20.2164811 138.898165,21.0888769 C140.030978,21.9612727 141.456759,22.5341894 143.175509,22.8076269 C143.162488,21.6097102 142.931368,20.3955175 142.48215,19.1650488 C142.032931,17.93458 141.492566,16.9417415 140.861056,16.1865331 C140.229546,15.4313248 139.640353,15.0537206 139.093478,15.0537206 Z M126.378634,1.81153314 C125.597384,1.81153314 124.754285,2.6936946 123.849337,4.45801751 C122.944389,6.22234043 122.17616,8.53028314 121.54465,11.3818456 C120.913139,14.2334081 120.597384,17.0524186 120.597384,19.8388769 L120.597384,20.7959081 C121.769259,20.3662206 122.856499,19.5979915 123.859103,18.4912206 C124.861707,17.3844498 125.675509,16.1507258 126.300509,14.7900488 C126.925509,13.4293717 127.410535,12.0393977 127.755587,10.6201269 C128.100639,9.20085606 128.273165,7.89226231 128.273165,6.69434564 C128.273165,5.30111647 128.077853,4.1390071 127.687228,3.20801751 C127.296603,2.27702793 126.860405,1.81153314 126.378634,1.81153314 Z" id="myTodosDark" fill="#FFFFFF" fill-rule="nonzero"></path>
    </g>
</svg>