<?xml version="1.0" encoding="UTF-8"?>
<svg width="170px" height="53px" viewBox="0 0 170 53" version="1.1" xmlns="http://www.w3.org/2000/svg" xmlns:xlink="http://www.w3.org/1999/xlink">
    <title>myTodosLight</title>
    <g id="Page-1" stroke="none" stroke-width="1" fill="none" fill-rule="evenodd">
        <path d="M8.24609375,0.681111589 C8.98828125,0.681111589 9.6328125,0.840616797 10.1796875,1.15962721 C10.7265625,1.47863763 11.1529948,1.87577305 11.4589844,2.35103346 C11.764974,2.82629388 12.0091146,3.42525221 12.1914062,4.14790846 C12.3736979,4.87056471 12.4908854,5.55741367 12.5429688,6.20845534 C12.5950521,6.85949701 12.6210938,7.59517409 12.6210938,8.41548659 L12.6182188,8.80661159 C12.6000104,10.1160283 12.4953125,12.0985595 12.304125,14.7542053 L12.0899523,17.6284043 C11.7995153,21.607987 11.6184896,24.6958685 11.546875,26.8920491 C12.3151042,22.2045491 13.4088542,17.8946533 14.828125,13.9623616 C16.2473958,10.0300699 17.8261719,6.92134596 19.5644531,4.63618971 C21.3027344,2.35103346 22.9856771,1.20845534 24.6132812,1.20845534 C26.2148438,1.20845534 27.3769531,2.01900221 28.0996094,3.64009596 C28.7908458,5.19070738 29.1514909,7.64374377 29.1815446,10.9992051 L29.182099,11.9104842 C29.1691446,13.9443251 29.0719866,17.1738571 28.890625,21.5990803 C29.8020833,18.343872 30.9479167,15.1960855 32.328125,12.155721 C33.7083333,9.11535638 35.1764323,6.58931471 36.7324219,4.57759596 C38.2884115,2.56587721 39.671875,1.56001784 40.8828125,1.56001784 C42.0286458,1.56001784 42.858724,1.99621576 43.3730469,2.86861159 C43.8873698,3.74100742 44.1445312,5.14074701 44.1445312,7.06783034 C44.1445312,9.1395896 44.0004983,11.7617604 43.7124325,14.9343427 L43.5976562,16.1498616 C43.1028646,21.2930908 42.8554687,25.8178303 42.8554687,29.7240803 C42.8554687,31.7292887 43.0117188,33.6107991 43.3242188,35.3686116 C43.6367187,37.1264241 44.0794271,38.2917887 44.6523438,38.8647053 C44.7174479,38.9167887 44.7760417,38.9232991 44.828125,38.8842366 C45.3098958,38.6368408 45.84375,37.9662678 46.4296875,36.8725178 C47.015625,35.7787678 47.6210938,34.3236897 48.2460938,32.5072835 L49.0834961,30.0390217 C49.2063802,29.6703694 49.3209229,29.3230794 49.427124,28.9971516 L49.7207031,28.0834553 C49.9470368,27.3674179 50.2006825,26.5343291 50.4816401,25.5841888 C50.462792,25.1768098 50.453125,24.753653 50.453125,24.3139241 C50.453125,22.4128824 50.6158854,20.5509033 50.9414062,18.7279866 C50.9804687,18.5066324 51.1269531,18.3080647 51.3808594,18.1322835 C51.6347656,17.9565022 51.9244792,17.8686116 52.25,17.8686116 C52.8619792,17.8686116 53.3177083,18.0509033 53.6171875,18.4154866 C53.8222656,18.6775309 53.9077148,18.9545287 53.8735352,19.2464802 L53.8515625,19.3725178 C53.4739583,21.4298095 53.2981771,23.4936116 53.3242188,25.5639241 C53.3242188,26.7227783 53.4251302,27.8165283 53.6269531,28.8451741 C53.828776,29.8738199 54.046875,30.4988199 54.28125,30.7201741 C54.3463542,30.7852783 54.4375,30.7917887 54.5546875,30.7397053 C55.21875,30.4011637 56.0032552,29.4311116 56.9082031,27.8295491 C57.813151,26.2279866 58.6139323,24.5710855 59.3105469,22.858846 C60.0071615,21.1466064 60.5833333,19.5613199 61.0390625,18.1029866 L61.0390625,18.0834553 L61.0585938,18.0443928 C61.1106771,17.9402262 61.15625,17.8621012 61.1953125,17.8100178 C61.4296875,17.4975178 61.7552083,17.328247 62.171875,17.3022053 C62.5494792,17.3152262 62.8945312,17.4324137 63.2070312,17.6537678 C63.5195312,17.875122 63.7408854,18.1680908 63.8710938,18.5326741 C64.6393229,20.9285074 65.0559896,23.9818928 65.1210938,27.6928303 C67.6992188,26.0261637 69.5742188,24.4115803 70.7460938,22.8490803 C70.9804688,22.5496012 71.2799479,22.5300699 71.6445312,22.7904866 C72.0221354,23.0639241 72.1067708,23.3568928 71.8984375,23.6693928 C70.5442708,25.687622 68.2851562,27.6798095 65.1210938,29.6459553 C65.0039062,36.234497 63.8841146,41.6316324 61.7617188,45.8373616 C60.6158854,48.1029866 59.2389323,49.8217366 57.6308594,50.9936116 C56.0227865,52.1654866 54.2356771,52.7514241 52.2695312,52.7514241 C51.2929688,52.7514241 50.4108073,52.5268147 49.6230469,52.077596 C48.8352865,51.6283772 48.2102865,51.0489501 47.7480469,50.3393147 C47.2858073,49.6296793 46.9309896,48.8777262 46.6835938,48.0834553 C46.4361979,47.2891845 46.3125,46.5144449 46.3125,45.7592366 C46.3125,44.7305908 46.4589844,43.734497 46.7519531,42.7709553 C47.0449219,41.8074137 47.3932292,40.9545491 47.796875,40.2123616 C48.2005208,39.4701741 48.7994792,38.6954345 49.59375,37.8881428 L50.1729736,37.3095296 C50.7357178,36.7577717 51.2490234,36.2865803 51.7128906,35.8959553 C52.2695312,35.4272053 53.0318359,34.8767171 53.9998047,34.2444905 L54.9785156,33.6174397 C55.703125,33.1589762 56.3160807,32.7834553 56.8173828,32.4908772 L58.253418,31.6747639 L62.328125,29.3920491 L62.328125,28.8256428 C62.328125,26.2735595 62.1132812,23.734497 61.6835938,21.2084553 L61.3341336,22.1658935 C60.0604881,25.5944417 58.8716363,28.1203477 57.7675781,29.7436116 C56.563151,31.5144449 55.3294271,32.3998616 54.0664062,32.3998616 C52.9335938,32.3998616 52.0481771,31.6837158 51.4101562,30.2514241 C51.298629,30.0010569 51.1968494,29.7339795 51.1048174,29.450192 L50.8509343,30.3099262 C50.8092056,30.4488595 50.7677553,30.5856108 50.7265625,30.7201741 C50.140625,32.6342366 49.515625,34.3660074 48.8515625,35.9154866 C48.1875,37.4649658 47.4973958,38.6140543 46.78125,39.3627522 C46.0651042,40.1114501 45.3033854,40.4857991 44.4960938,40.4857991 C43.7278646,40.4857991 43.0507812,40.1830647 42.4648438,39.577596 C41.8789062,38.9721272 41.4264323,38.2234293 41.1074219,37.3315022 C40.7884115,36.4395751 40.53125,35.375122 40.3359375,34.1381428 C40.140625,32.9011637 40.0136719,31.765096 39.9550781,30.7299397 C39.8964844,29.6947835 39.8671875,28.6173095 39.8671875,27.4975178 C39.8671875,23.3048095 40.1992188,17.796997 40.8632812,10.9740803 L41.0942812,8.36708034 C41.2267396,6.78112201 41.2929688,5.74908034 41.2929688,5.27095534 C41.2929688,4.35949701 41.2278646,3.76704909 41.0976562,3.49361159 L41.0585938,3.43501784 C41.0325521,3.43501784 41.0094039,3.44080488 40.9891493,3.45237895 L40.9609375,3.47408034 C39.8671875,4.20324701 38.7799479,5.31001784 37.6992188,6.79439284 C36.6184896,8.27876784 35.6321615,9.94868971 34.7402344,11.8041585 C33.8483073,13.6596272 32.9921875,15.7234293 32.171875,17.9955647 C31.3515625,20.2677001 30.625651,22.5268147 29.9941406,24.7729085 C29.3626302,27.0190022 28.7994792,29.3009033 28.3046875,31.6186116 L28.3022461,31.6454671 L28.2949219,31.686971 C28.2884115,31.719523 28.2851562,31.7423095 28.2851562,31.7553303 C28.2330729,32.171997 28.0735677,32.4910074 27.8066406,32.7123616 C27.5397135,32.9337158 27.2434896,33.031372 26.9179688,33.0053303 C26.5794271,32.9792887 26.2897135,32.8328043 26.0488281,32.5658772 C25.8079427,32.2989501 25.6875,31.9115803 25.6875,31.4037678 L25.7,30.0553303 C25.7305556,28.1723442 25.8171296,25.4280734 25.9597222,21.8225178 L26.159375,16.7180257 C26.2614583,13.8587809 26.3125,11.7683512 26.3125,10.4467366 C26.3125,8.88423659 26.2441406,7.5203043 26.1074219,6.35493971 C25.9707031,5.18957513 25.8046875,4.33345534 25.609375,3.78658034 C25.4140625,3.23970534 25.1992188,2.96626784 24.9648438,2.96626784 C23.9101562,2.96626784 22.735026,3.77681471 21.4394531,5.39790846 C20.1438802,7.01900221 18.890625,9.22277826 17.6796875,12.0092366 C16.234375,15.3816324 15.0169271,19.281372 14.0273438,23.7084553 C13.1138822,27.7949938 12.4500509,32.0978784 12.0358497,36.6171092 L11.9375,37.7514241 C11.8723958,38.6238199 11.7356771,39.2227783 11.5273438,39.5482991 C11.2539062,39.9389241 10.8828125,40.1342366 10.4140625,40.1342366 C10.21875,40.1472574 10.046224,40.0951741 9.89648438,39.9779866 C9.74674479,39.8607991 9.63932292,39.7110595 9.57421875,39.5287678 C8.96171875,37.5037678 8.64321875,34.4287678 8.61871875,30.3037678 L8.6171875,29.7826741 C8.6171875,25.0951741 8.86844269,19.7357125 9.37095308,13.7042894 L9.57820472,11.2362685 C9.73179741,9.31234446 9.80859375,7.98145881 9.80859375,7.24361159 C9.80859375,4.02746576 9.38541667,2.41939284 8.5390625,2.41939284 C7.6015625,2.41939284 6.39388021,3.07694492 4.91601562,4.39204909 C3.43815104,5.70715326 2.484375,7.02876784 2.0546875,8.35689284 C2.04600694,8.35689284 2.04311343,8.35978636 2.04600694,8.36557339 L2.0546875,8.37642409 C2.18489583,8.57173659 2.20442708,8.76704909 2.11328125,8.96236159 C1.98307292,9.20975742 1.78125,9.33345534 1.5078125,9.33345534 C1.22135417,9.33345534 0.98046875,9.22603346 0.78515625,9.01118971 C0.58984375,8.79634596 0.4921875,8.52616367 0.4921875,8.20064284 C0.4921875,7.36730951 0.947916667,6.3484293 1.859375,5.14400221 C2.77083333,3.93957513 3.84830729,2.89465326 5.09179688,2.00923659 C6.33528646,1.12381992 7.38671875,0.681111589 8.24609375,0.681111589 Z M62.2695312,31.3256428 L61.0672743,32.000556 C60.8531539,32.1191903 60.6809896,32.2132296 60.5507812,32.2826741 L58.8422014,33.2479108 C58.5115184,33.4365202 58.2135031,33.6078713 57.9481555,33.761964 L57.40625,34.0795491 C56.7734375,34.4545491 55.9586914,34.9640217 54.9620117,35.6079671 L54.6230469,35.827596 C53.4707031,36.5762939 52.5950521,37.250122 51.9960938,37.8490803 C51.3971354,38.4480387 50.7688802,39.1544189 50.1113281,39.968221 C49.453776,40.782023 48.985026,41.641398 48.7050781,42.546346 C48.4251302,43.4512939 48.2851562,44.4180908 48.2851562,45.4467366 C48.2851562,46.3451741 48.4544271,47.2273355 48.7929688,48.093221 C49.1315104,48.9591064 49.6230469,49.6785074 50.2675781,50.2514241 C50.9121094,50.8243408 51.625,51.1107991 52.40625,51.1107991 C54.1380208,51.1107991 55.7265625,50.2611897 57.171875,48.561971 C58.6171875,46.8627522 59.7858073,44.5092366 60.6777344,41.5014241 C61.5696615,38.4936116 62.1002604,35.1016845 62.2695312,31.3256428 Z M125.804688,0.876424089 C127.09375,0.876424089 128.070312,1.42329909 128.734375,2.51704909 C129.398438,3.61079909 129.730469,5.20585117 129.730469,7.30220534 C129.730469,8.92980951 129.505859,10.5964762 129.056641,12.3022053 C128.607422,14.0079345 127.992188,15.593221 127.210938,17.0580647 C126.429688,18.5229085 125.453125,19.8022053 124.28125,20.8959553 C123.109375,21.9897053 121.852865,22.7123616 120.511719,23.0639241 C120.628906,25.1212158 120.886068,26.953898 121.283203,28.561971 C121.680339,30.1700439 122.149089,31.4232991 122.689453,32.3217366 C123.229818,33.2201741 123.779948,33.8972574 124.339844,34.3529866 C124.89974,34.8087158 125.440104,35.0365803 125.960938,35.0365803 C127.328125,35.0365803 128.750651,33.9363199 130.228516,31.7357991 C131.380938,30.0198579 132.317606,28.0070073 133.038519,25.6972474 C133.019931,25.4020844 133.011719,25.1041237 133.011719,24.8022053 C133.011719,23.5522053 133.128906,22.6765543 133.363281,22.1752522 C133.597656,21.6739501 134.001302,21.4232991 134.574219,21.4232991 C135.238281,21.4232991 135.720052,21.6055908 136.019531,21.9701741 C136.019531,21.9831949 136.026042,21.9962158 136.039062,22.0092366 L136.078125,22.0482991 C136.221354,22.2566324 136.273438,22.484497 136.234375,22.7318928 C136.078125,23.6693928 136,24.6068928 136,25.5443928 C136,26.6902262 136.15625,27.8262939 136.46875,28.952596 C136.78125,30.078898 137.184896,30.9936116 137.679688,31.6967366 C138.174479,32.3998616 138.675781,32.7514241 139.183594,32.7514241 C139.925781,32.7514241 140.690755,31.9701741 141.478516,30.4076741 C142.266276,28.8451741 142.757812,27.0678303 142.953125,25.0756428 C141.546875,24.906372 140.244792,24.5613199 139.046875,24.0404866 C137.848958,23.5196533 136.885417,22.8295491 136.15625,21.9701741 C135.205729,20.8634033 134.74349,19.6003824 134.769531,18.1811116 C134.769531,16.9571533 135.134115,15.9643147 135.863281,15.202596 C136.592448,14.4408772 137.536458,14.0600178 138.695312,14.0600178 C140.479167,14.0600178 141.960286,14.9617105 143.138672,16.765096 C144.317057,18.5684814 144.919271,20.8634033 144.945312,23.6498616 L145.0625,23.6498616 C145.973958,23.6498616 146.976562,23.5587158 148.070312,23.3764241 C148.749023,23.2633056 149.360047,23.1301317 149.903384,22.9769023 C149.72206,22.4987333 149.632812,22.0002295 149.632812,21.4818928 C149.632812,20.5443928 150.007161,19.6036376 150.755859,18.6596272 C151.504557,17.7156168 152.464844,16.9441324 153.636719,16.3451741 C154.808594,15.7462158 155.980469,15.4467366 157.152344,15.4467366 C158.33724,15.4467366 159.372396,15.7690022 160.257812,16.4135335 C161.143229,17.0580647 161.585938,17.8165283 161.585938,18.6889241 C161.585938,19.1837158 161.46224,19.6850178 161.214844,20.1928303 C160.967448,20.7006428 160.68099,20.9545491 160.355469,20.9545491 C160.160156,20.9545491 159.984375,20.8634033 159.828125,20.6811116 C159.645833,20.4337158 159.59375,20.1537678 159.671875,19.8412678 C159.671875,19.8022053 159.678385,19.7566324 159.691406,19.7045491 C159.704427,19.6524658 159.717448,19.6068928 159.730469,19.5678303 C159.795573,19.3204345 159.841146,19.046997 159.867188,18.7475178 C159.867188,18.4350178 159.727214,18.1583251 159.447266,17.9174397 C159.167318,17.6765543 158.779948,17.5561116 158.285156,17.5561116 C157.634115,17.5561116 156.85612,17.8067626 155.951172,18.3080647 C155.046224,18.8093668 154.251953,19.4571533 153.568359,20.2514241 C152.884766,21.0456949 152.542969,21.8009033 152.542969,22.5170491 C152.542969,22.8816324 152.634115,23.2234293 152.816406,23.5424397 C152.998698,23.8614501 153.294922,24.1739501 153.705078,24.4799397 C154.115234,24.7859293 154.483073,25.0333251 154.808594,25.2221272 L155.235229,25.4633687 C155.397583,25.5533955 155.580078,25.6530354 155.782715,25.7622883 L157.011719,26.42076 C157.576823,26.7297444 158.014323,26.984497 158.324219,27.1850178 L158.832031,26.8725178 C160.589844,25.7527262 162.376953,24.7989501 164.193359,24.0111897 C166.009766,23.2234293 167.471354,22.7318928 168.578125,22.5365803 C168.799479,22.484497 169.007812,22.5137939 169.203125,22.624471 C169.398438,22.735148 169.522135,22.9011637 169.574219,23.1225178 C169.626302,23.3178303 169.613281,23.4805908 169.535156,23.6107991 C169.44401,23.7670491 169.313802,23.8647053 169.144531,23.9037678 C165.511719,25.0756428 162.347656,26.5209553 159.652344,28.2397053 C160.53776,29.0990803 160.980469,30.0561116 160.980469,31.1107991 C160.980469,32.5040283 160.391276,33.7930908 159.212891,34.9779866 C158.034505,36.1628824 156.611979,36.7553303 154.945312,36.7553303 C154.151042,36.7553303 153.50651,36.530721 153.011719,36.0815022 C152.516927,35.6322835 152.269531,35.1212158 152.269531,34.5482991 C152.269531,32.6732991 153.740885,30.609497 156.683594,28.3568928 C156.292969,28.1225178 155.863281,27.8881428 155.394531,27.6537678 C155.36849,27.6364067 155.332321,27.6161521 155.286024,27.593004 L154.974609,27.4486897 C154.902995,27.4161376 154.834635,27.3803303 154.769531,27.3412678 C154.079427,26.9766845 153.470703,26.6186116 152.943359,26.2670491 C152.416016,25.9154866 151.878906,25.4955647 151.332031,25.0072835 C151.085921,24.7875419 150.865522,24.5565928 150.670834,24.3144361 C149.18727,24.8649305 147.252205,25.1513174 144.867188,25.1732991 C144.776042,26.2410074 144.577474,27.3054605 144.271484,28.3666585 C143.965495,29.4278564 143.578125,30.4109293 143.109375,31.3158772 C142.640625,32.2208251 142.051432,32.9565022 141.341797,33.5229085 C140.632161,34.0893147 139.867188,34.3725178 139.046875,34.3725178 C137.953125,34.3725178 136.94401,33.9460855 136.019531,33.093221 C135.095052,32.2403564 134.36263,31.078247 133.822266,29.6068928 C133.720139,29.3288139 133.627664,29.0460841 133.544839,28.7587033 C133.323504,29.2916189 133.073888,29.8479968 132.796875,30.4272053 C132.223958,31.625122 131.611979,32.657023 130.960938,33.5229085 C130.309896,34.3887939 129.522135,35.1147053 128.597656,35.7006428 C127.673177,36.2865803 126.703125,36.5795491 125.6875,36.5795491 C124.567708,36.5795491 123.516276,36.2214762 122.533203,35.5053303 C121.55013,34.7891845 120.69401,33.7605387 119.964844,32.4193928 C119.212891,31.0348442 118.646936,29.4205322 118.266981,27.5764566 L118.167187,27.0681116 L117.787707,28.1440421 C117.628268,28.5872819 117.481585,28.983753 117.347656,29.3334553 C117.113281,29.9454345 116.843099,30.5704345 116.537109,31.2084553 C116.23112,31.8464762 115.934896,32.3542887 115.648438,32.7318928 C115.361979,33.109497 115.036458,33.4187418 114.671875,33.6596272 C114.307292,33.9005126 113.929688,34.0209553 113.539062,34.0209553 C112.471354,34.0209553 111.55013,33.3731689 110.775391,32.077596 C110.000651,30.782023 109.613281,29.2488199 109.613281,27.4779866 C109.613281,26.4131875 109.720782,25.4364046 109.935784,24.547638 C108.563887,24.9465214 106.867058,25.1546871 104.847656,25.1732991 C104.75651,26.2410074 104.557943,27.3054605 104.251953,28.3666585 C103.945964,29.4278564 103.558594,30.4109293 103.089844,31.3158772 C102.621094,32.2208251 102.031901,32.9565022 101.322266,33.5229085 C100.61263,34.0893147 99.8476562,34.3725178 99.0273438,34.3725178 C97.9335938,34.3725178 96.9244792,33.9460855 96,33.093221 C95.0755208,32.2403564 94.343099,31.078247 93.8027344,29.6068928 L93.7091875,29.3401116 L93.6287468,29.6467525 C93.4182876,30.4311913 93.2126116,31.1080089 93.0117188,31.6772053 C92.7773438,32.3412678 92.5071615,32.9988199 92.2011719,33.6498616 C91.8951823,34.3009033 91.5826823,34.8217366 91.2636719,35.2123616 C90.9446615,35.6029866 90.5833333,35.9187418 90.1796875,36.1596272 C89.7760417,36.4005126 89.3528646,36.5209553 88.9101562,36.5209553 C87.1393229,36.5209553 85.7233073,35.078898 84.6621094,32.1947835 C83.6009115,29.3106689 83.0703125,25.4467366 83.0703125,20.6029866 C83.0703125,18.3634033 83.1679688,16.0717366 83.3632812,13.7279866 C81.6705729,13.9232991 80.1015625,14.0274658 78.65625,14.0404866 C76.8984375,14.0404866 75.2610677,13.8516845 73.7441406,13.4740803 C72.2272135,13.0964762 71.2669271,12.5170491 70.8632812,11.7357991 C70.7591146,11.5665283 70.7265625,11.3842366 70.765625,11.1889241 C70.8046875,10.9936116 70.9088542,10.8373616 71.078125,10.7201741 C71.1953125,10.6290283 71.3255208,10.593221 71.46875,10.6127522 C71.6119792,10.6322835 71.7356771,10.6941324 71.8398438,10.7982991 C72.3085938,11.3321533 73.2330729,11.7683512 74.6132812,12.1068928 C75.8763021,12.3933512 77.1783854,12.5365803 78.5195312,12.5365803 C80.1341146,12.5235595 81.8007812,12.4128824 83.5195312,12.2045491 L83.6047092,11.3976643 C83.9190177,8.52412917 84.2552083,6.58605951 84.6132812,5.58345534 C84.8216146,4.99751784 85.2057292,4.70454909 85.765625,4.70454909 C86.3385417,4.70454909 86.7617188,4.87381992 87.0351562,5.21236159 C87.2565104,5.49881992 87.328125,5.81783034 87.25,6.16939284 C86.9375,7.70585117 86.6510417,9.59387201 86.390625,11.8334553 C87.3541667,11.703247 88.2916667,11.5665283 89.203125,11.4232991 L91.053677,11.1608479 C93.216243,10.8670654 94.6892361,10.7201741 95.4726562,10.7201741 C97.8294271,10.7201741 99.3919271,11.2605387 100.160156,12.3412678 C100.36849,12.6147053 100.401042,12.9076741 100.257812,13.2201741 C100.153646,13.4675699 99.9648438,13.6042887 99.6914062,13.6303303 C99.3919271,13.6303303 99.1705729,13.500122 99.0273438,13.2397053 C98.5846354,12.5886637 97.4583333,12.2631428 95.6484375,12.2631428 L95.4013499,12.2674189 C94.326091,12.3016275 92.2079327,12.5410876 89.046875,12.9857991 L88.3198342,13.0910287 L86.3408813,13.3607075 C86.3024292,13.3663024 86.2669271,13.3715413 86.234375,13.3764241 C85.9609375,16.0717366 85.8242188,18.6889241 85.8242188,21.2279866 C85.8242188,23.6238199 85.9804688,25.8861897 86.2929688,28.015096 C86.6054688,30.1440022 87.0221354,31.843221 87.5429688,33.1127522 C88.0638021,34.3822835 88.6171875,35.0170491 89.203125,35.0170491 C89.8020833,35.0170491 90.5214844,33.8874918 91.3613281,31.6283772 C91.9826713,29.9570121 92.5380901,28.0308578 93.0275844,25.8499144 C93.0035357,25.506569 92.9921875,25.1571217 92.9921875,24.8022053 C92.9921875,23.5522053 93.109375,22.6765543 93.34375,22.1752522 C93.578125,21.6739501 93.9817708,21.4232991 94.5546875,21.4232991 C95.21875,21.4232991 95.7005208,21.6055908 96,21.9701741 C96,21.9831949 96.0065104,21.9962158 96.0195312,22.0092366 L96.0585938,22.0482991 C96.2018229,22.2566324 96.2539062,22.484497 96.2148438,22.7318928 C96.0585938,23.6693928 95.9804688,24.6068928 95.9804688,25.5443928 C95.9804688,26.6902262 96.1367188,27.8262939 96.4492188,28.952596 C96.7617188,30.078898 97.1653646,30.9936116 97.6601562,31.6967366 C98.1549479,32.3998616 98.65625,32.7514241 99.1640625,32.7514241 C99.90625,32.7514241 100.671224,31.9701741 101.458984,30.4076741 C102.246745,28.8451741 102.738281,27.0678303 102.933594,25.0756428 C101.527344,24.906372 100.22526,24.5613199 99.0273438,24.0404866 C97.8294271,23.5196533 96.8658854,22.8295491 96.1367188,21.9701741 C95.1861979,20.8634033 94.7239583,19.6003824 94.75,18.1811116 C94.75,16.9571533 95.1145833,15.9643147 95.84375,15.202596 C96.5729167,14.4408772 97.5169271,14.0600178 98.6757812,14.0600178 C100.459635,14.0600178 101.940755,14.9617105 103.119141,16.765096 C104.297526,18.5684814 104.89974,20.8634033 104.925781,23.6498616 L105.042969,23.6498616 C105.954427,23.6498616 106.957031,23.5587158 108.050781,23.3764241 C109.033537,23.2126315 109.874377,23.0067902 110.573303,22.7589001 C110.748062,22.393433 110.949649,22.0496851 111.175781,21.7260335 C112.217448,20.235148 113.565104,19.4897053 115.21875,19.4897053 C116.117188,19.4897053 116.950521,19.7175699 117.71875,20.1732991 C117.835938,15.1602783 118.584635,10.8113199 119.964844,7.12642409 C120.720052,5.10819492 121.602214,3.56197096 122.611328,2.48775221 C123.620443,1.41353346 124.684896,0.876424089 125.804688,0.876424089 Z M157.972656,29.4311116 C155.563802,31.3061116 154.359375,33.0769449 154.359375,34.7436116 C154.359375,34.8217366 154.378906,34.8803303 154.417969,34.9193928 C154.44401,34.9454345 154.489583,34.9584553 154.554688,34.9584553 C155.453125,34.8933512 156.31901,34.4018147 157.152344,33.483846 C157.985677,32.5658772 158.402344,31.6446533 158.402344,30.7201741 C158.402344,30.2253824 158.259115,29.7956949 157.972656,29.4311116 Z M115.648438,21.1303303 C114.958333,21.1303303 114.248698,21.719523 113.519531,22.8979085 C112.790365,24.0762939 112.425781,25.7136637 112.425781,27.8100178 C112.425781,28.7865803 112.552734,29.6947835 112.806641,30.5346272 C113.060547,31.374471 113.356771,31.9831949 113.695312,32.3607991 C113.734375,32.3998616 113.779948,32.3998616 113.832031,32.3607991 C114.509115,31.7618408 115.208984,30.515096 115.931641,28.6205647 C116.654297,26.7260335 117.24349,24.7436116 117.699219,22.6732991 C117.490885,22.2566324 117.181641,21.8953043 116.771484,21.5893147 C116.361328,21.2833251 115.986979,21.1303303 115.648438,21.1303303 Z M98.9296875,15.7397053 C98.3697917,15.7397053 97.9140625,16.0196533 97.5625,16.5795491 C97.2109375,17.1394449 97.0351562,17.7709553 97.0351562,18.4740803 C97.0351562,19.8022053 97.6015625,20.9024658 98.734375,21.7748616 C99.8671875,22.6472574 101.292969,23.2201741 103.011719,23.4936116 C102.998698,22.2956949 102.767578,21.0815022 102.318359,19.8510335 C101.869141,18.6205647 101.328776,17.6277262 100.697266,16.8725178 C100.065755,16.1173095 99.4765625,15.7397053 98.9296875,15.7397053 Z M138.949219,15.7397053 C138.389323,15.7397053 137.933594,16.0196533 137.582031,16.5795491 C137.230469,17.1394449 137.054688,17.7709553 137.054688,18.4740803 C137.054688,19.8022053 137.621094,20.9024658 138.753906,21.7748616 C139.886719,22.6472574 141.3125,23.2201741 143.03125,23.4936116 C143.018229,22.2956949 142.787109,21.0815022 142.337891,19.8510335 C141.888672,18.6205647 141.348307,17.6277262 140.716797,16.8725178 C140.085286,16.1173095 139.496094,15.7397053 138.949219,15.7397053 Z M126.234375,2.49751784 C125.453125,2.49751784 124.610026,3.3796793 123.705078,5.14400221 C122.80013,6.90832513 122.031901,9.21626784 121.400391,12.0678303 C120.76888,14.9193928 120.453125,17.7384033 120.453125,20.5248616 L120.453125,21.4818928 C121.625,21.0522053 122.71224,20.2839762 123.714844,19.1772053 C124.717448,18.0704345 125.53125,16.8367105 126.15625,15.4760335 C126.78125,14.1153564 127.266276,12.7253824 127.611328,11.3061116 C127.95638,9.88684076 128.128906,8.57824701 128.128906,7.38033034 C128.128906,5.98710117 127.933594,4.8249918 127.542969,3.89400221 C127.152344,2.96301263 126.716146,2.49751784 126.234375,2.49751784 Z" id="myTodosLight" fill="#444444" fill-rule="nonzero"></path>
    </g>
</svg>