<?xml version="1.0" encoding="UTF-8"?>
<svg width="174px" height="61px" viewBox="0 0 174 61" version="1.1" xmlns="http://www.w3.org/2000/svg" xmlns:xlink="http://www.w3.org/1999/xlink">
    <title>myTodosDarkShadow</title>
    <g id="Page-1" stroke="none" stroke-width="1" fill="none" fill-rule="evenodd">
        <g id="myTodosDarkShadow" transform="translate(0.6364, -0.0049)" fill-rule="nonzero">
            <path d="M11.7539062,8 C12.4960938,8 13.140625,8.15950521 13.6875,8.47851562 C14.234375,8.79752604 14.6608073,9.19466146 14.9667969,9.66992188 C15.2727865,10.1451823 15.5169271,10.7441406 15.6992188,11.4667969 C15.8815104,12.1894531 15.9986979,12.8763021 16.0507812,13.5273438 C16.094184,14.0698785 16.1195023,14.6711878 16.1267361,15.3312717 L16.1289062,15.734375 C16.1289062,17.025 16.02325,19.1379063 15.8119375,22.0730937 L15.5212674,26.0105252 C15.2753183,29.4809389 15.1197917,32.2144097 15.0546875,34.2109375 C15.8229167,29.5234375 16.9166667,25.2135417 18.3359375,21.28125 C19.7552083,17.3489583 21.3339844,14.2402344 23.0722656,11.9550781 C24.8105469,9.66992188 26.4934896,8.52734375 28.1210938,8.52734375 C29.7226562,8.52734375 30.8847656,9.33789062 31.6074219,10.9589844 C32.2986583,12.5095958 32.6593034,14.9626322 32.6893571,18.3180935 L32.6899115,19.2293726 C32.6769571,21.2632135 32.5797991,24.4927455 32.3984375,28.9179688 C33.3098958,25.6627604 34.4557292,22.514974 35.8359375,19.4746094 C37.2161458,16.4342448 38.6842448,13.9082031 40.2402344,11.8964844 C41.796224,9.88476562 43.1796875,8.87890625 44.390625,8.87890625 C45.5364583,8.87890625 46.3665365,9.31510417 46.8808594,10.1875 C47.3951823,11.0598958 47.6523438,12.4596354 47.6523438,14.3867188 C47.6523438,16.587963 47.4897441,19.4105702 47.1645448,22.8545404 L47.1054688,23.46875 C46.6106771,28.6119792 46.3632812,33.1367188 46.3632812,37.0429688 C46.3632812,39.0481771 46.5195312,40.9296875 46.8320312,42.6875 C47.1445312,44.4453125 47.5872396,45.6106771 48.1601562,46.1835938 C48.2252604,46.2356771 48.2838542,46.2421875 48.3359375,46.203125 C48.8177083,45.9557292 49.3515625,45.2851562 49.9375,44.1914062 C50.5234375,43.0976562 51.1289062,41.6425781 51.7539062,39.8261719 L52.1976318,38.5279541 C52.5698107,37.4309489 52.8826723,36.4858534 53.1362169,35.6926676 L53.5345655,34.4172265 C53.6772764,33.9507309 53.8289054,33.4460145 53.9894526,32.9030772 C53.9706045,32.4956982 53.9609375,32.0725414 53.9609375,31.6328125 C53.9609375,29.7317708 54.1236979,27.8697917 54.4492188,26.046875 C54.4882812,25.8255208 54.6347656,25.6269531 54.8886719,25.4511719 C55.1425781,25.2753906 55.4322917,25.1875 55.7578125,25.1875 C56.3697917,25.1875 56.8255208,25.3697917 57.125,25.734375 C57.3300781,25.9964193 57.4155273,26.2734172 57.3813477,26.5653687 L57.359375,26.6914062 C56.9817708,28.7486979 56.8059896,30.8125 56.8320312,32.8828125 C56.8320312,34.0416667 56.9329427,35.1354167 57.1347656,36.1640625 C57.3365885,37.1927083 57.5546875,37.8177083 57.7890625,38.0390625 C57.8541667,38.1041667 57.9453125,38.1106771 58.0625,38.0585938 C58.7265625,37.7200521 59.5110677,36.75 60.4160156,35.1484375 C61.3209635,33.546875 62.1217448,31.889974 62.8183594,30.1777344 C63.514974,28.4654948 64.0911458,26.8802083 64.546875,25.421875 L64.546875,25.4023438 L64.5664062,25.3632812 C64.6184896,25.2591146 64.6640625,25.1809896 64.703125,25.1289062 C64.9375,24.8164062 65.2630208,24.6471354 65.6796875,24.6210938 C66.0572917,24.6341146 66.4023438,24.7513021 66.7148438,24.9726562 C67.0273438,25.1940104 67.2486979,25.4869792 67.3789062,25.8515625 C68.1471354,28.2473958 68.5638021,31.3007812 68.6289062,35.0117188 C71.2070312,33.3450521 73.0820312,31.7304688 74.2539062,30.1679688 C74.4882812,29.8684896 74.7877604,29.8489583 75.1523438,30.109375 C75.5299479,30.3828125 75.6145833,30.6757812 75.40625,30.9882812 C74.0520833,33.0065104 71.7929688,34.9986979 68.6289062,36.9648438 C68.5117188,43.5533854 67.3919271,48.9505208 65.2695312,53.15625 C64.1236979,55.421875 62.7467448,57.140625 61.1386719,58.3125 C59.530599,59.484375 57.7434896,60.0703125 55.7773438,60.0703125 C54.8007812,60.0703125 53.9186198,59.8457031 53.1308594,59.3964844 C52.343099,58.9472656 51.718099,58.3678385 51.2558594,57.6582031 C50.7936198,56.9485677 50.4388021,56.1966146 50.1914062,55.4023438 C49.9440104,54.6080729 49.8203125,53.8333333 49.8203125,53.078125 C49.8203125,52.0494792 49.9667969,51.0533854 50.2597656,50.0898438 C50.5527344,49.1263021 50.9010417,48.2734375 51.3046875,47.53125 C51.7083333,46.7890625 52.3072917,46.0143229 53.1015625,45.2070312 C53.8958333,44.3997396 54.6022135,43.7356771 55.2207031,43.2148438 C55.8391927,42.6940104 56.7115885,42.0722656 57.8378906,41.3496094 L58.4863281,40.9363281 C59.2109375,40.4778646 59.8238932,40.1023438 60.3251953,39.8097656 L61.7612305,38.9936523 C62.2446289,38.7218424 62.8020833,38.4101562 63.4335938,38.0585938 L65.8359375,36.7109375 L65.8359375,36.1445312 C65.8359375,33.5924479 65.6210938,31.0533854 65.1914062,28.5273438 L64.8419461,29.4847819 C63.5683006,32.9133301 62.3794488,35.4392361 61.2753906,37.0625 C60.0709635,38.8333333 58.8372396,39.71875 57.5742188,39.71875 C56.4414063,39.71875 55.5559896,39.0026042 54.9179688,37.5703125 C54.8064415,37.3199453 54.7046619,37.0528679 54.6126299,36.7690804 L54.3587468,37.6288146 C54.3170181,37.7677479 54.2755678,37.9044992 54.234375,38.0390625 C53.6484375,39.953125 53.0234375,41.6848958 52.359375,43.234375 C51.6953125,44.7838542 51.0052083,45.9329427 50.2890625,46.6816406 C49.5729167,47.4303385 48.8111979,47.8046875 48.0039062,47.8046875 C47.2356771,47.8046875 46.5585937,47.5019531 45.9726562,46.8964844 C45.3867188,46.2910156 44.9342448,45.5423177 44.6152344,44.6503906 C44.296224,43.7584635 44.0390625,42.6940104 43.84375,41.4570312 C43.6484375,40.2200521 43.5214844,39.0839844 43.4628906,38.0488281 C43.4042969,37.0136719 43.375,35.9361979 43.375,34.8164062 C43.375,31.2226562 43.6189413,26.6627073 44.106824,21.1365593 L44.5525938,16.2687188 C44.7180521,14.3505104 44.8007812,13.1242187 44.8007812,12.5898438 L44.7953559,12.1606988 C44.7772714,11.4897642 44.7139757,11.0403646 44.6054688,10.8125 L44.5664062,10.7539062 C44.5273438,10.7539062 44.4947917,10.7669271 44.46875,10.7929688 C43.375,11.5221354 42.2877604,12.6289062 41.2070312,14.1132812 C40.1263021,15.5976562 39.139974,17.2675781 38.2480469,19.1230469 C37.3561198,20.9785156 36.5,23.0423177 35.6796875,25.3144531 C34.859375,27.5865885 34.1334635,29.8457031 33.5019531,32.0917969 C32.8704427,34.3378906 32.3072917,36.6197917 31.8125,38.9375 L31.8100586,38.9643555 L31.8027344,39.0058594 C31.796224,39.0384115 31.7929688,39.0611979 31.7929688,39.0742188 C31.7408854,39.4908854 31.5813802,39.8098958 31.3144531,40.03125 C31.047526,40.2526042 30.7513021,40.3502604 30.4257812,40.3242188 C30.0872396,40.2981771 29.797526,40.1516927 29.5566406,39.8847656 C29.3157552,39.6178385 29.1953125,39.2304688 29.1953125,38.7226562 L29.2039931,37.625651 C29.2317708,35.656901 29.3262153,32.663151 29.4873264,28.644401 L29.6366319,24.8747613 C29.7537616,21.7259476 29.8148727,19.4209129 29.8199653,17.9596571 L29.8203125,17.765625 C29.8203125,16.203125 29.7519531,14.8391927 29.6152344,13.6738281 C29.4785156,12.5084635 29.3125,11.6523438 29.1171875,11.1054688 C28.921875,10.5585938 28.7070312,10.2851562 28.4726562,10.2851562 C27.4179688,10.2851562 26.2428385,11.0957031 24.9472656,12.7167969 C23.6516927,14.3378906 22.3984375,16.5416667 21.1875,19.328125 C19.7421875,22.7005208 18.5247396,26.6002604 17.5351562,31.0273438 C16.6216947,35.1138822 15.9578634,39.4167668 15.5436622,43.9359976 L15.4453125,45.0703125 C15.3802083,45.9427083 15.2434896,46.5416667 15.0351562,46.8671875 C14.7617187,47.2578125 14.390625,47.453125 13.921875,47.453125 C13.7265625,47.4661458 13.5540365,47.4140625 13.4042969,47.296875 C13.2545573,47.1796875 13.1471354,47.0299479 13.0820312,46.8476562 C12.4695312,44.8226562 12.1510312,41.7476563 12.1265312,37.6226562 L12.125,37.1015625 C12.125,32.6744792 12.3491134,27.6480227 12.7973403,22.0221931 L13.0860172,18.555157 C13.230575,16.7444049 13.3071057,15.458974 13.3156091,14.6988644 L13.3164062,14.5625 C13.3164062,11.3463542 12.8932292,9.73828125 12.046875,9.73828125 C11.109375,9.73828125 9.90169271,10.3958333 8.42382812,11.7109375 C6.94596354,13.0260417 5.9921875,14.3476562 5.5625,15.6757812 C5.55381944,15.6757812 5.55092593,15.6786748 5.55381944,15.6844618 L5.5625,15.6953125 C5.69270833,15.890625 5.71223958,16.0859375 5.62109375,16.28125 C5.49088542,16.5286458 5.2890625,16.6523438 5.015625,16.6523438 C4.72916667,16.6523438 4.48828125,16.5449219 4.29296875,16.3300781 C4.09765625,16.1152344 4,15.8450521 4,15.5195312 C4,14.6861979 4.45572917,13.6673177 5.3671875,12.4628906 C6.27864583,11.2584635 7.35611979,10.2135417 8.59960938,9.328125 C9.84309896,8.44270833 10.8945312,8 11.7539062,8 Z M65.7773438,38.6445312 L64.9277344,39.1230469 L64.2853733,39.4789497 C64.1992911,39.5259693 64.1236979,39.5668403 64.0585938,39.6015625 L62.3500139,40.5667992 C62.0193309,40.7554087 61.7213156,40.9267597 61.455968,41.0808524 L60.9140625,41.3984375 C60.2109375,41.8151042 59.2832031,42.3977865 58.1308594,43.1464844 C56.9785156,43.8951823 56.1028646,44.5690104 55.5039062,45.1679688 C54.9049479,45.7669271 54.2766927,46.4733073 53.6191406,47.2871094 C52.9615885,48.1009115 52.4928385,48.9602865 52.2128906,49.8652344 C51.9329427,50.7701823 51.7929688,51.7369792 51.7929688,52.765625 C51.7929688,53.6640625 51.9622396,54.546224 52.3007812,55.4121094 C52.6393229,56.2779948 53.1308594,56.9973958 53.7753906,57.5703125 C54.4199219,58.1432292 55.1328125,58.4296875 55.9140625,58.4296875 C57.6458333,58.4296875 59.234375,57.5800781 60.6796875,55.8808594 C62.125,54.1816406 63.2936198,51.828125 64.1855469,48.8203125 C65.077474,45.8125 65.6080729,42.4205729 65.7773438,38.6445312 Z M129.3125,8.1953125 C130.601562,8.1953125 131.578125,8.7421875 132.242188,9.8359375 C132.90625,10.9296875 133.238281,12.5247396 133.238281,14.6210938 C133.238281,16.2486979 133.013672,17.9153646 132.564453,19.6210938 C132.115234,21.3268229 131.5,22.9121094 130.71875,24.3769531 C129.9375,25.8417969 128.960938,27.1210938 127.789062,28.2148438 C126.617188,29.3085937 125.360677,30.03125 124.019531,30.3828125 C124.136719,32.4401042 124.39388,34.2727865 124.791016,35.8808594 C125.188151,37.4889323 125.656901,38.7421875 126.197266,39.640625 C126.73763,40.5390625 127.28776,41.2161458 127.847656,41.671875 C128.407552,42.1276042 128.947917,42.3554688 129.46875,42.3554688 C130.835938,42.3554688 132.258464,41.2552083 133.736328,39.0546875 C134.88875,37.3387463 135.825418,35.3258957 136.546332,33.0161358 C136.527743,32.7209728 136.519531,32.4230121 136.519531,32.1210938 C136.519531,30.8710938 136.636719,29.9954427 136.871094,29.4941406 C137.105469,28.9928385 137.509115,28.7421875 138.082031,28.7421875 C138.746094,28.7421875 139.227865,28.9244792 139.527344,29.2890625 C139.527344,29.3020833 139.533854,29.3151042 139.546875,29.328125 L139.585938,29.3671875 C139.729167,29.5755208 139.78125,29.8033854 139.742188,30.0507812 C139.585938,30.9882812 139.507812,31.9257812 139.507812,32.8632812 C139.507812,34.0091146 139.664062,35.1451823 139.976562,36.2714844 C140.289062,37.3977865 140.692708,38.3125 141.1875,39.015625 C141.682292,39.71875 142.183594,40.0703125 142.691406,40.0703125 C143.433594,40.0703125 144.198568,39.2890625 144.986328,37.7265625 C145.774089,36.1640625 146.265625,34.3867188 146.460938,32.3945312 C145.054688,32.2252604 143.752604,31.8802083 142.554688,31.359375 C141.356771,30.8385417 140.393229,30.1484375 139.664062,29.2890625 C138.713542,28.1822917 138.251302,26.9192708 138.277344,25.5 C138.277344,24.2760417 138.641927,23.2832031 139.371094,22.5214844 C140.10026,21.7597656 141.044271,21.3789062 142.203125,21.3789062 C143.986979,21.3789062 145.468099,22.280599 146.646484,24.0839844 C147.82487,25.8873698 148.427083,28.1822917 148.453125,30.96875 L148.570312,30.96875 C149.481771,30.96875 150.484375,30.8776042 151.578125,30.6953125 C152.256836,30.582194 152.86786,30.4490201 153.411196,30.2957907 C153.229873,29.8176218 153.140625,29.3191179 153.140625,28.8007812 C153.140625,27.8632812 153.514974,26.922526 154.263672,25.9785156 C155.01237,25.0345052 155.972656,24.2630208 157.144531,23.6640625 C158.316406,23.0651042 159.488281,22.765625 160.660156,22.765625 C161.845052,22.765625 162.880208,23.0878906 163.765625,23.7324219 C164.651042,24.3769531 165.09375,25.1354167 165.09375,26.0078125 C165.09375,26.5026042 164.970052,27.0039062 164.722656,27.5117188 C164.47526,28.0195312 164.188802,28.2734375 163.863281,28.2734375 C163.667969,28.2734375 163.492188,28.1822917 163.335938,28 C163.153646,27.7526042 163.101562,27.4726562 163.179688,27.1601562 C163.179688,27.1210938 163.186198,27.0755208 163.199219,27.0234375 L163.238281,26.8867188 C163.303385,26.6393229 163.348958,26.3658854 163.375,26.0664062 C163.375,25.7539062 163.235026,25.4772135 162.955078,25.2363281 C162.67513,24.9954427 162.28776,24.875 161.792969,24.875 C161.141927,24.875 160.363932,25.125651 159.458984,25.6269531 C158.554036,26.1282552 157.759766,26.7760417 157.076172,27.5703125 C156.392578,28.3645833 156.050781,29.1197917 156.050781,29.8359375 C156.050781,30.2005208 156.141927,30.5423177 156.324219,30.8613281 C156.50651,31.1803385 156.802734,31.4928385 157.212891,31.7988281 C157.623047,32.1048177 157.990885,32.3522135 158.316406,32.5410156 L158.743042,32.7822571 C158.905396,32.8722839 159.087891,32.9719238 159.290527,33.0811768 L160.519531,33.7396484 C161.084635,34.0486328 161.522135,34.3033854 161.832031,34.5039062 L162.339844,34.1914062 C164.097656,33.0716146 165.884766,32.1178385 167.701172,31.3300781 C169.517578,30.5423177 170.979167,30.0507812 172.085938,29.8554688 C172.307292,29.8033854 172.515625,29.8326823 172.710938,29.9433594 C172.90625,30.0540365 173.029948,30.2200521 173.082031,30.4414063 C173.134115,30.6367188 173.121094,30.7994792 173.042969,30.9296875 C172.951823,31.0859375 172.821615,31.1835938 172.652344,31.2226562 C169.019531,32.3945312 165.855469,33.8398438 163.160156,35.5585938 C164.045573,36.4179688 164.488281,37.375 164.488281,38.4296875 C164.488281,39.8229167 163.899089,41.1119792 162.720703,42.296875 C161.542318,43.4817708 160.119792,44.0742188 158.453125,44.0742188 C157.658854,44.0742188 157.014323,43.8496094 156.519531,43.4003906 C156.02474,42.9511719 155.777344,42.4401042 155.777344,41.8671875 C155.777344,39.9921875 157.248698,37.9283854 160.191406,35.6757812 C159.800781,35.4414062 159.371094,35.2070312 158.902344,34.9726562 C158.863281,34.9466146 158.801432,34.9140625 158.716797,34.875 L158.482422,34.7675781 C158.410807,34.735026 158.342448,34.6992188 158.277344,34.6601562 C157.58724,34.2955729 156.978516,33.9375 156.451172,33.5859375 C155.923828,33.234375 155.386719,32.8144531 154.839844,32.3261719 C154.593733,32.1064303 154.373334,31.8754812 154.178647,31.6333245 C152.695083,32.1838189 150.760018,32.4702058 148.375,32.4921875 C148.283854,33.5598958 148.085286,34.624349 147.779297,35.6855469 C147.473307,36.7467448 147.085938,37.7298177 146.617188,38.6347656 C146.148438,39.5397135 145.559245,40.2753906 144.849609,40.8417969 C144.139974,41.4082031 143.375,41.6914062 142.554688,41.6914062 C141.460938,41.6914062 140.451823,41.264974 139.527344,40.4121094 C138.602865,39.5592448 137.870443,38.3971354 137.330078,36.9257812 C137.227952,36.6477024 137.135476,36.3649725 137.052651,36.0775917 C136.831316,36.6105073 136.5817,37.1668852 136.304688,37.7460938 C135.731771,38.9440104 135.119792,39.9759115 134.46875,40.8417969 C133.817708,41.7076823 133.029948,42.4335938 132.105469,43.0195312 C131.18099,43.6054688 130.210938,43.8984375 129.195312,43.8984375 C128.075521,43.8984375 127.024089,43.5403646 126.041016,42.8242188 C125.057943,42.1080729 124.201823,41.0794271 123.472656,39.7382812 C122.720703,38.3537326 122.154749,36.7394206 121.774794,34.8953451 L121.675,34.387 L121.29552,35.4629305 C121.136081,35.9061703 120.989397,36.3026414 120.855469,36.6523438 C120.621094,37.2643229 120.350911,37.8893229 120.044922,38.5273438 C119.738932,39.1653646 119.442708,39.6731771 119.15625,40.0507812 C118.869792,40.4283854 118.544271,40.7376302 118.179688,40.9785156 C117.815104,41.219401 117.4375,41.3398438 117.046875,41.3398438 C115.979167,41.3398438 115.057943,40.6920573 114.283203,39.3964844 C113.508464,38.1009115 113.121094,36.5677083 113.121094,34.796875 C113.121094,33.7320759 113.228595,32.755293 113.443596,31.8665264 C112.071699,32.2654098 110.374871,32.4735755 108.355469,32.4921875 C108.264323,33.5598958 108.065755,34.624349 107.759766,35.6855469 C107.453776,36.7467448 107.066406,37.7298177 106.597656,38.6347656 C106.128906,39.5397135 105.539714,40.2753906 104.830078,40.8417969 C104.120443,41.4082031 103.355469,41.6914062 102.535156,41.6914062 C101.441406,41.6914062 100.432292,41.264974 99.5078125,40.4121094 C98.5833333,39.5592448 97.8509115,38.3971354 97.3105469,36.9257812 L97.217,36.659 L97.1365593,36.9656409 C96.9261001,37.7500797 96.7204241,38.4268973 96.5195313,38.9960938 C96.2851563,39.6601562 96.014974,40.3177083 95.7089844,40.96875 C95.4029948,41.6197917 95.0904948,42.140625 94.7714844,42.53125 C94.452474,42.921875 94.0911458,43.2376302 93.6875,43.4785156 C93.2838542,43.719401 92.8606771,43.8398438 92.4179688,43.8398438 C90.6471354,43.8398438 89.2311198,42.3977865 88.1699219,39.5136719 C87.108724,36.6295573 86.578125,32.765625 86.578125,27.921875 C86.578125,25.6822917 86.6757813,23.390625 86.8710938,21.046875 C85.1783854,21.2421875 83.609375,21.3463542 82.1640625,21.359375 C80.40625,21.359375 78.7688802,21.1705729 77.2519531,20.7929688 C75.735026,20.4153646 74.7747396,19.8359375 74.3710938,19.0546875 C74.2669271,18.8854167 74.234375,18.703125 74.2734375,18.5078125 C74.3125,18.3125 74.4166667,18.15625 74.5859375,18.0390625 C74.703125,17.9479167 74.8333333,17.9121094 74.9765625,17.9316406 C75.1197917,17.9511719 75.2434896,18.0130208 75.3476563,18.1171875 C75.8164063,18.6510417 76.7408854,19.0872396 78.1210938,19.4257812 C79.3841146,19.7122396 80.6861979,19.8554688 82.0273438,19.8554688 C83.6419271,19.8424479 85.3085938,19.7317708 87.0273438,19.5234375 L87.1125217,18.7165527 C87.4268302,15.8430176 87.7630208,13.9049479 88.1210938,12.9023438 C88.3294271,12.3164062 88.7135417,12.0234375 89.2734375,12.0234375 C89.8463542,12.0234375 90.2695313,12.1927083 90.5429688,12.53125 C90.7643229,12.8177083 90.8359375,13.1367188 90.7578125,13.4882812 C90.4453125,15.0247396 90.1588542,16.9127604 89.8984375,19.1523438 C90.8619792,19.0221354 91.7994792,18.8854167 92.7109375,18.7421875 L94.5614895,18.4797363 C96.7240555,18.1859538 98.1970486,18.0390625 98.9804688,18.0390625 C101.33724,18.0390625 102.89974,18.5794271 103.667969,19.6601562 C103.876302,19.9335938 103.908854,20.2265625 103.765625,20.5390625 C103.661458,20.7864583 103.472656,20.9231771 103.199219,20.9492188 C102.89974,20.9492188 102.678385,20.8190104 102.535156,20.5585938 C102.092448,19.9075521 100.966146,19.5820312 99.15625,19.5820312 L98.9091624,19.5863073 C97.8339035,19.6205159 95.7157452,19.859976 92.5546875,20.3046875 L91.8276467,20.4099171 L89.7421875,20.6953125 C89.46875,23.390625 89.3320313,26.0078125 89.3320313,28.546875 C89.3320313,30.9427083 89.4882813,33.2050781 89.8007813,35.3339844 C90.1132813,37.4628906 90.5299479,39.1621094 91.0507813,40.4316406 C91.5716146,41.7011719 92.125,42.3359375 92.7109375,42.3359375 C93.3098958,42.3359375 94.0292969,41.2063802 94.8691406,38.9472656 C95.4904838,37.2759005 96.0459026,35.3497462 96.5353969,33.1688028 C96.5113482,32.8254574 96.5,32.4760101 96.5,32.1210938 C96.5,30.8710938 96.6171875,29.9954427 96.8515625,29.4941406 C97.0859375,28.9928385 97.4895833,28.7421875 98.0625,28.7421875 C98.7265625,28.7421875 99.2083333,28.9244792 99.5078125,29.2890625 C99.5078125,29.3020833 99.5143229,29.3151042 99.5273438,29.328125 L99.5664062,29.3671875 C99.7096354,29.5755208 99.7617188,29.8033854 99.7226562,30.0507812 C99.5664062,30.9882812 99.4882812,31.9257812 99.4882812,32.8632812 C99.4882812,34.0091146 99.6445312,35.1451823 99.9570312,36.2714844 C100.269531,37.3977865 100.673177,38.3125 101.167969,39.015625 C101.66276,39.71875 102.164062,40.0703125 102.671875,40.0703125 C103.414062,40.0703125 104.179036,39.2890625 104.966797,37.7265625 C105.754557,36.1640625 106.246094,34.3867188 106.441406,32.3945312 C105.035156,32.2252604 103.733073,31.8802083 102.535156,31.359375 C101.33724,30.8385417 100.373698,30.1484375 99.6445312,29.2890625 C98.6940104,28.1822917 98.2317708,26.9192708 98.2578125,25.5 C98.2578125,24.2760417 98.6223958,23.2832031 99.3515625,22.5214844 C100.080729,21.7597656 101.02474,21.3789062 102.183594,21.3789062 C103.967448,21.3789062 105.448568,22.280599 106.626953,24.0839844 C107.805339,25.8873698 108.407552,28.1822917 108.433594,30.96875 L108.550781,30.96875 C109.46224,30.96875 110.464844,30.8776042 111.558594,30.6953125 C112.541349,30.5315199 113.38219,30.3256786 114.081116,30.0777885 C114.255875,29.7123214 114.457462,29.3685735 114.683594,29.0449219 C115.72526,27.5540365 117.072917,26.8085938 118.726562,26.8085938 C119.625,26.8085938 120.458333,27.0364583 121.226562,27.4921875 C121.34375,22.4791667 122.092448,18.1302083 123.472656,14.4453125 C124.227865,12.4270833 125.110026,10.8808594 126.119141,9.80664062 C127.128255,8.73242188 128.192708,8.1953125 129.3125,8.1953125 Z M161.480469,36.75 C159.071615,38.625 157.867188,40.3958333 157.867188,42.0625 C157.867188,42.140625 157.886719,42.1992188 157.925781,42.2382812 C157.951823,42.2643229 157.997396,42.2773438 158.0625,42.2773438 C158.960938,42.2122396 159.826823,41.7207031 160.660156,40.8027344 C161.49349,39.8847656 161.910156,38.9635417 161.910156,38.0390625 C161.910156,37.5442708 161.766927,37.1145833 161.480469,36.75 Z M119.15625,28.4492188 C118.466146,28.4492188 117.75651,29.0384115 117.027344,30.2167969 C116.298177,31.3951823 115.933594,33.0325521 115.933594,35.1289062 C115.933594,36.1054688 116.060547,37.0136719 116.314453,37.8535156 C116.568359,38.6933594 116.864583,39.3020833 117.203125,39.6796875 C117.242188,39.71875 117.28776,39.71875 117.339844,39.6796875 C118.016927,39.0807292 118.716797,37.8339844 119.439453,35.9394531 C120.162109,34.0449219 120.751302,32.0625 121.207031,29.9921875 C120.998698,29.5755208 120.689453,29.2141927 120.279297,28.9082031 C119.869141,28.6022135 119.494792,28.4492188 119.15625,28.4492188 Z M102.4375,23.0585938 C101.877604,23.0585938 101.421875,23.3385417 101.070312,23.8984375 C100.71875,24.4583333 100.542969,25.0898438 100.542969,25.7929688 C100.542969,27.1210938 101.109375,28.2213542 102.242188,29.09375 C103.375,29.9661458 104.800781,30.5390625 106.519531,30.8125 C106.50651,29.6145833 106.275391,28.4003906 105.826172,27.1699219 C105.376953,25.9394531 104.836589,24.9466146 104.205078,24.1914062 C103.573568,23.4361979 102.984375,23.0585938 102.4375,23.0585938 Z M142.457031,23.0585938 C141.897135,23.0585938 141.441406,23.3385417 141.089844,23.8984375 C140.738281,24.4583333 140.5625,25.0898438 140.5625,25.7929688 C140.5625,27.1210938 141.128906,28.2213542 142.261719,29.09375 C143.394531,29.9661458 144.820312,30.5390625 146.539062,30.8125 C146.526042,29.6145833 146.294922,28.4003906 145.845703,27.1699219 C145.396484,25.9394531 144.85612,24.9466146 144.224609,24.1914062 C143.593099,23.4361979 143.003906,23.0585938 142.457031,23.0585938 Z M129.742188,9.81640625 C128.960938,9.81640625 128.117839,10.6985677 127.212891,12.4628906 C126.307943,14.2272135 125.539714,16.5351562 124.908203,19.3867188 C124.276693,22.2382812 123.960938,25.0572917 123.960938,27.84375 L123.960938,28.8007812 C125.132812,28.3710938 126.220052,27.6028646 127.222656,26.4960938 C128.22526,25.3893229 129.039062,24.155599 129.664062,22.7949219 C130.289062,21.4342448 130.774089,20.0442708 131.119141,18.625 C131.464193,17.2057292 131.636719,15.8971354 131.636719,14.6992188 C131.636719,13.3059896 131.441406,12.1438802 131.050781,11.2128906 C130.660156,10.281901 130.223958,9.81640625 129.742188,9.81640625 Z" id="myTodosDark-Copy" fill="#141414"></path>
            <path d="M7.75390625,0 C8.49609375,0 9.140625,0.159505208 9.6875,0.478515625 C10.234375,0.797526042 10.6608073,1.19466146 10.9667969,1.66992188 C11.2727865,2.14518229 11.5169271,2.74414062 11.6992188,3.46679688 C11.8815104,4.18945312 11.9986979,4.87630208 12.0507812,5.52734375 C12.094184,6.06987847 12.1195023,6.67118779 12.1267361,7.3312717 L12.1289062,7.734375 C12.1289062,9.025 12.02325,11.1379063 11.8119375,14.0730937 L11.5212674,18.0105252 C11.2753183,21.4809389 11.1197917,24.2144097 11.0546875,26.2109375 C11.8229167,21.5234375 12.9166667,17.2135417 14.3359375,13.28125 C15.7552083,9.34895833 17.3339844,6.24023438 19.0722656,3.95507813 C20.8105469,1.66992188 22.4934896,0.52734375 24.1210938,0.52734375 C25.7226562,0.52734375 26.8847656,1.33789062 27.6074219,2.95898438 C28.2986583,4.50959579 28.6593034,6.96263218 28.6893571,10.3180935 L28.6899115,11.2293726 C28.6769571,13.2632135 28.5797991,16.4927455 28.3984375,20.9179688 C29.3098958,17.6627604 30.4557292,14.514974 31.8359375,11.4746094 C33.2161458,8.43424479 34.6842448,5.90820312 36.2402344,3.89648438 C37.796224,1.88476563 39.1796875,0.87890625 40.390625,0.87890625 C41.5364583,0.87890625 42.3665365,1.31510417 42.8808594,2.1875 C43.3951823,3.05989583 43.6523438,4.45963542 43.6523438,6.38671875 C43.6523438,8.58796296 43.4897441,11.4105702 43.1645448,14.8545404 L43.1054688,15.46875 C42.6106771,20.6119792 42.3632812,25.1367188 42.3632812,29.0429688 C42.3632812,31.0481771 42.5195312,32.9296875 42.8320312,34.6875 C43.1445312,36.4453125 43.5872396,37.6106771 44.1601562,38.1835938 C44.2252604,38.2356771 44.2838542,38.2421875 44.3359375,38.203125 C44.8177083,37.9557292 45.3515625,37.2851562 45.9375,36.1914062 C46.5234375,35.0976562 47.1289062,33.6425781 47.7539062,31.8261719 L48.1976318,30.5279541 C48.5698107,29.4309489 48.8826723,28.4858534 49.1362169,27.6926676 L49.5345655,26.4172265 C49.6772764,25.9507309 49.8289054,25.4460145 49.9894526,24.9030772 C49.9706045,24.4956982 49.9609375,24.0725414 49.9609375,23.6328125 C49.9609375,21.7317708 50.1236979,19.8697917 50.4492188,18.046875 C50.4882812,17.8255208 50.6347656,17.6269531 50.8886719,17.4511719 C51.1425781,17.2753906 51.4322917,17.1875 51.7578125,17.1875 C52.3697917,17.1875 52.8255208,17.3697917 53.125,17.734375 C53.3300781,17.9964193 53.4155273,18.2734172 53.3813477,18.5653687 L53.359375,18.6914062 C52.9817708,20.7486979 52.8059896,22.8125 52.8320312,24.8828125 C52.8320312,26.0416667 52.9329427,27.1354167 53.1347656,28.1640625 C53.3365885,29.1927083 53.5546875,29.8177083 53.7890625,30.0390625 C53.8541667,30.1041667 53.9453125,30.1106771 54.0625,30.0585937 C54.7265625,29.7200521 55.5110677,28.75 56.4160156,27.1484375 C57.3209635,25.546875 58.1217448,23.889974 58.8183594,22.1777344 C59.514974,20.4654948 60.0911458,18.8802083 60.546875,17.421875 L60.546875,17.4023438 L60.5664063,17.3632812 C60.6184896,17.2591146 60.6640625,17.1809896 60.703125,17.1289062 C60.9375,16.8164062 61.2630208,16.6471354 61.6796875,16.6210938 C62.0572917,16.6341146 62.4023438,16.7513021 62.7148438,16.9726562 C63.0273438,17.1940104 63.2486979,17.4869792 63.3789062,17.8515625 C64.1471354,20.2473958 64.5638021,23.3007812 64.6289062,27.0117187 C67.2070312,25.3450521 69.0820312,23.7304688 70.2539062,22.1679688 C70.4882812,21.8684896 70.7877604,21.8489583 71.1523438,22.109375 C71.5299479,22.3828125 71.6145833,22.6757812 71.40625,22.9882812 C70.0520833,25.0065104 67.7929688,26.9986979 64.6289062,28.9648438 C64.5117188,35.5533854 63.3919271,40.9505208 61.2695312,45.15625 C60.1236979,47.421875 58.7467448,49.140625 57.1386719,50.3125 C55.530599,51.484375 53.7434896,52.0703125 51.7773438,52.0703125 C50.8007812,52.0703125 49.9186198,51.8457031 49.1308594,51.3964844 C48.343099,50.9472656 47.718099,50.3678385 47.2558594,49.6582031 C46.7936198,48.9485677 46.4388021,48.1966146 46.1914062,47.4023438 C45.9440104,46.6080729 45.8203125,45.8333333 45.8203125,45.078125 C45.8203125,44.0494792 45.9667969,43.0533854 46.2597656,42.0898438 C46.5527344,41.1263021 46.9010417,40.2734375 47.3046875,39.53125 C47.7083333,38.7890625 48.3072917,38.0143229 49.1015625,37.2070312 C49.8958333,36.3997396 50.6022135,35.7356771 51.2207031,35.2148438 C51.8391927,34.6940104 52.7115885,34.0722656 53.8378906,33.3496094 L54.4863281,32.9363281 C55.2109375,32.4778646 55.8238932,32.1023438 56.3251953,31.8097656 L57.7612305,30.9936523 C58.2446289,30.7218424 58.8020833,30.4101562 59.4335938,30.0585937 L61.8359375,28.7109375 L61.8359375,28.1445312 C61.8359375,25.5924479 61.6210938,23.0533854 61.1914062,20.5273438 L60.8419461,21.4847819 C59.5683006,24.9133301 58.3794488,27.4392361 57.2753906,29.0625 C56.0709635,30.8333333 54.8372396,31.71875 53.5742188,31.71875 C52.4414063,31.71875 51.5559896,31.0026042 50.9179688,29.5703125 C50.8064415,29.3199453 50.7046619,29.0528679 50.6126299,28.7690804 L50.3587468,29.6288146 C50.3170181,29.7677479 50.2755678,29.9044992 50.234375,30.0390625 C49.6484375,31.953125 49.0234375,33.6848958 48.359375,35.234375 C47.6953125,36.7838542 47.0052083,37.9329427 46.2890625,38.6816406 C45.5729167,39.4303385 44.8111979,39.8046875 44.0039062,39.8046875 C43.2356771,39.8046875 42.5585937,39.5019531 41.9726562,38.8964844 C41.3867188,38.2910156 40.9342448,37.5423177 40.6152344,36.6503906 C40.296224,35.7584635 40.0390625,34.6940104 39.84375,33.4570312 C39.6484375,32.2200521 39.5214844,31.0839844 39.4628906,30.0488281 C39.4042969,29.0136719 39.375,27.9361979 39.375,26.8164062 C39.375,23.2226562 39.6189413,18.6627073 40.106824,13.1365593 L40.5525938,8.26871875 C40.7180521,6.35051042 40.8007812,5.12421875 40.8007812,4.58984375 L40.7953559,4.16069878 C40.7772714,3.48976418 40.7139757,3.04036458 40.6054688,2.8125 L40.5664062,2.75390625 C40.5273438,2.75390625 40.4947917,2.76692708 40.46875,2.79296875 C39.375,3.52213542 38.2877604,4.62890625 37.2070312,6.11328125 C36.1263021,7.59765625 35.139974,9.26757812 34.2480469,11.1230469 C33.3561198,12.9785156 32.5,15.0423177 31.6796875,17.3144531 C30.859375,19.5865885 30.1334635,21.8457031 29.5019531,24.0917969 C28.8704427,26.3378906 28.3072917,28.6197917 27.8125,30.9375 L27.8100586,30.9643555 L27.8027344,31.0058594 C27.796224,31.0384115 27.7929688,31.0611979 27.7929688,31.0742188 C27.7408854,31.4908854 27.5813802,31.8098958 27.3144531,32.03125 C27.047526,32.2526042 26.7513021,32.3502604 26.4257812,32.3242188 C26.0872396,32.2981771 25.797526,32.1516927 25.5566406,31.8847656 C25.3157552,31.6178385 25.1953125,31.2304688 25.1953125,30.7226562 L25.2039931,29.625651 C25.2317708,27.656901 25.3262153,24.663151 25.4873264,20.644401 L25.6366319,16.8747613 C25.7537616,13.7259476 25.8148727,11.4209129 25.8199653,9.95965712 L25.8203125,9.765625 C25.8203125,8.203125 25.7519531,6.83919271 25.6152344,5.67382812 C25.4785156,4.50846354 25.3125,3.65234375 25.1171875,3.10546875 C24.921875,2.55859375 24.7070312,2.28515625 24.4726562,2.28515625 C23.4179688,2.28515625 22.2428385,3.09570312 20.9472656,4.71679688 C19.6516927,6.33789062 18.3984375,8.54166667 17.1875,11.328125 C15.7421875,14.7005208 14.5247396,18.6002604 13.5351562,23.0273438 C12.6216947,27.1138822 11.9578634,31.4167668 11.5436622,35.9359976 L11.4453125,37.0703125 C11.3802083,37.9427083 11.2434896,38.5416667 11.0351562,38.8671875 C10.7617187,39.2578125 10.390625,39.453125 9.921875,39.453125 C9.7265625,39.4661458 9.55403646,39.4140625 9.40429688,39.296875 C9.25455729,39.1796875 9.14713542,39.0299479 9.08203125,38.8476562 C8.46953125,36.8226562 8.15103125,33.7476563 8.12653125,29.6226562 L8.125,29.1015625 C8.125,24.6744792 8.34911343,19.6480227 8.79734029,14.0221931 L9.08601722,10.555157 C9.23057504,8.74440488 9.30710565,7.45897404 9.31560906,6.69886444 L9.31640625,6.5625 C9.31640625,3.34635417 8.89322917,1.73828125 8.046875,1.73828125 C7.109375,1.73828125 5.90169271,2.39583333 4.42382812,3.7109375 C2.94596354,5.02604167 1.9921875,6.34765625 1.5625,7.67578125 C1.55381944,7.67578125 1.55092593,7.67867477 1.55381944,7.68446181 L1.5625,7.6953125 C1.69270833,7.890625 1.71223958,8.0859375 1.62109375,8.28125 C1.49088542,8.52864583 1.2890625,8.65234375 1.015625,8.65234375 C0.729166667,8.65234375 0.48828125,8.54492188 0.29296875,8.33007812 C0.09765625,8.11523438 0,7.84505208 0,7.51953125 C0,6.68619792 0.455729167,5.66731771 1.3671875,4.46289062 C2.27864583,3.25846354 3.35611979,2.21354167 4.59960938,1.328125 C5.84309896,0.442708333 6.89453125,0 7.75390625,0 Z M61.7773438,30.6445312 L60.9277344,31.1230469 L60.2853733,31.4789497 C60.1992911,31.5259693 60.1236979,31.5668403 60.0585938,31.6015625 L58.3500139,32.5667992 C58.0193309,32.7554087 57.7213156,32.9267597 57.455968,33.0808524 L56.9140625,33.3984375 C56.2109375,33.8151042 55.2832031,34.3977865 54.1308594,35.1464844 C52.9785156,35.8951823 52.1028646,36.5690104 51.5039062,37.1679688 C50.9049479,37.7669271 50.2766927,38.4733073 49.6191406,39.2871094 C48.9615885,40.1009115 48.4928385,40.9602865 48.2128906,41.8652344 C47.9329427,42.7701823 47.7929688,43.7369792 47.7929688,44.765625 C47.7929688,45.6640625 47.9622396,46.546224 48.3007812,47.4121094 C48.6393229,48.2779948 49.1308594,48.9973958 49.7753906,49.5703125 C50.4199219,50.1432292 51.1328125,50.4296875 51.9140625,50.4296875 C53.6458333,50.4296875 55.234375,49.5800781 56.6796875,47.8808594 C58.125,46.1816406 59.2936198,43.828125 60.1855469,40.8203125 C61.077474,37.8125 61.6080729,34.4205729 61.7773438,30.6445312 Z M125.3125,0.1953125 C126.601562,0.1953125 127.578125,0.7421875 128.242188,1.8359375 C128.90625,2.9296875 129.238281,4.52473958 129.238281,6.62109375 C129.238281,8.24869792 129.013672,9.91536458 128.564453,11.6210938 C128.115234,13.3268229 127.5,14.9121094 126.71875,16.3769531 C125.9375,17.8417969 124.960938,19.1210938 123.789062,20.2148438 C122.617188,21.3085937 121.360677,22.03125 120.019531,22.3828125 C120.136719,24.4401042 120.39388,26.2727865 120.791016,27.8808594 C121.188151,29.4889323 121.656901,30.7421875 122.197266,31.640625 C122.73763,32.5390625 123.28776,33.2161458 123.847656,33.671875 C124.407552,34.1276042 124.947917,34.3554688 125.46875,34.3554688 C126.835938,34.3554688 128.258464,33.2552083 129.736328,31.0546875 C130.88875,29.3387463 131.825418,27.3258957 132.546332,25.0161358 C132.527743,24.7209728 132.519531,24.4230121 132.519531,24.1210938 C132.519531,22.8710938 132.636719,21.9954427 132.871094,21.4941406 C133.105469,20.9928385 133.509115,20.7421875 134.082031,20.7421875 C134.746094,20.7421875 135.227865,20.9244792 135.527344,21.2890625 C135.527344,21.3020833 135.533854,21.3151042 135.546875,21.328125 L135.585938,21.3671875 C135.729167,21.5755208 135.78125,21.8033854 135.742188,22.0507812 C135.585938,22.9882812 135.507812,23.9257812 135.507812,24.8632812 C135.507812,26.0091146 135.664062,27.1451823 135.976562,28.2714844 C136.289062,29.3977865 136.692708,30.3125 137.1875,31.015625 C137.682292,31.71875 138.183594,32.0703125 138.691406,32.0703125 C139.433594,32.0703125 140.198568,31.2890625 140.986328,29.7265625 C141.774089,28.1640625 142.265625,26.3867188 142.460938,24.3945312 C141.054688,24.2252604 139.752604,23.8802083 138.554688,23.359375 C137.356771,22.8385417 136.393229,22.1484375 135.664062,21.2890625 C134.713542,20.1822917 134.251302,18.9192708 134.277344,17.5 C134.277344,16.2760417 134.641927,15.2832031 135.371094,14.5214844 C136.10026,13.7597656 137.044271,13.3789063 138.203125,13.3789063 C139.986979,13.3789063 141.468099,14.280599 142.646484,16.0839844 C143.82487,17.8873698 144.427083,20.1822917 144.453125,22.96875 L144.570312,22.96875 C145.481771,22.96875 146.484375,22.8776042 147.578125,22.6953125 C148.256836,22.582194 148.86786,22.4490201 149.411196,22.2957907 C149.229873,21.8176218 149.140625,21.3191179 149.140625,20.8007812 C149.140625,19.8632812 149.514974,18.922526 150.263672,17.9785156 C151.01237,17.0345052 151.972656,16.2630208 153.144531,15.6640625 C154.316406,15.0651042 155.488281,14.765625 156.660156,14.765625 C157.845052,14.765625 158.880208,15.0878906 159.765625,15.7324219 C160.651042,16.3769531 161.09375,17.1354167 161.09375,18.0078125 C161.09375,18.5026042 160.970052,19.0039062 160.722656,19.5117188 C160.47526,20.0195312 160.188802,20.2734375 159.863281,20.2734375 C159.667969,20.2734375 159.492188,20.1822917 159.335938,20 C159.153646,19.7526042 159.101562,19.4726562 159.179688,19.1601562 C159.179688,19.1210938 159.186198,19.0755208 159.199219,19.0234375 L159.238281,18.8867188 C159.303385,18.6393229 159.348958,18.3658854 159.375,18.0664062 C159.375,17.7539062 159.235026,17.4772135 158.955078,17.2363281 C158.67513,16.9954427 158.28776,16.875 157.792969,16.875 C157.141927,16.875 156.363932,17.125651 155.458984,17.6269531 C154.554036,18.1282552 153.759766,18.7760417 153.076172,19.5703125 C152.392578,20.3645833 152.050781,21.1197917 152.050781,21.8359375 C152.050781,22.2005208 152.141927,22.5423177 152.324219,22.8613281 C152.50651,23.1803385 152.802734,23.4928385 153.212891,23.7988281 C153.623047,24.1048177 153.990885,24.3522135 154.316406,24.5410156 L154.743042,24.7822571 C154.905396,24.8722839 155.087891,24.9719238 155.290527,25.0811768 L156.519531,25.7396484 C157.084635,26.0486328 157.522135,26.3033854 157.832031,26.5039062 L158.339844,26.1914062 C160.097656,25.0716146 161.884766,24.1178385 163.701172,23.3300781 C165.517578,22.5423177 166.979167,22.0507812 168.085938,21.8554688 C168.307292,21.8033854 168.515625,21.8326823 168.710938,21.9433594 C168.90625,22.0540365 169.029948,22.2200521 169.082031,22.4414063 C169.134115,22.6367188 169.121094,22.7994792 169.042969,22.9296875 C168.951823,23.0859375 168.821615,23.1835938 168.652344,23.2226562 C165.019531,24.3945312 161.855469,25.8398438 159.160156,27.5585938 C160.045573,28.4179688 160.488281,29.375 160.488281,30.4296875 C160.488281,31.8229167 159.899089,33.1119792 158.720703,34.296875 C157.542318,35.4817708 156.119792,36.0742188 154.453125,36.0742188 C153.658854,36.0742188 153.014323,35.8496094 152.519531,35.4003906 C152.02474,34.9511719 151.777344,34.4401042 151.777344,33.8671875 C151.777344,31.9921875 153.248698,29.9283854 156.191406,27.6757813 C155.800781,27.4414062 155.371094,27.2070312 154.902344,26.9726562 C154.863281,26.9466146 154.801432,26.9140625 154.716797,26.875 L154.482422,26.7675781 C154.410807,26.735026 154.342448,26.6992188 154.277344,26.6601562 C153.58724,26.2955729 152.978516,25.9375 152.451172,25.5859375 C151.923828,25.234375 151.386719,24.8144531 150.839844,24.3261719 C150.593733,24.1064303 150.373334,23.8754812 150.178647,23.6333245 C148.695083,24.1838189 146.760018,24.4702058 144.375,24.4921875 C144.283854,25.5598958 144.085286,26.624349 143.779297,27.6855469 C143.473307,28.7467448 143.085938,29.7298177 142.617188,30.6347656 C142.148438,31.5397135 141.559245,32.2753906 140.849609,32.8417969 C140.139974,33.4082031 139.375,33.6914062 138.554688,33.6914062 C137.460938,33.6914062 136.451823,33.264974 135.527344,32.4121094 C134.602865,31.5592448 133.870443,30.3971354 133.330078,28.9257812 C133.227952,28.6477024 133.135476,28.3649725 133.052651,28.0775917 C132.831316,28.6105073 132.5817,29.1668852 132.304688,29.7460938 C131.731771,30.9440104 131.119792,31.9759115 130.46875,32.8417969 C129.817708,33.7076823 129.029948,34.4335938 128.105469,35.0195312 C127.18099,35.6054688 126.210938,35.8984375 125.195312,35.8984375 C124.075521,35.8984375 123.024089,35.5403646 122.041016,34.8242188 C121.057943,34.1080729 120.201823,33.0794271 119.472656,31.7382812 C118.720703,30.3537326 118.154749,28.7394206 117.774794,26.8953451 L117.675,26.387 L117.29552,27.4629305 C117.136081,27.9061703 116.989397,28.3026414 116.855469,28.6523438 C116.621094,29.2643229 116.350911,29.8893229 116.044922,30.5273438 C115.738932,31.1653646 115.442708,31.6731771 115.15625,32.0507812 C114.869792,32.4283854 114.544271,32.7376302 114.179688,32.9785156 C113.815104,33.219401 113.4375,33.3398438 113.046875,33.3398438 C111.979167,33.3398438 111.057943,32.6920573 110.283203,31.3964844 C109.508464,30.1009115 109.121094,28.5677083 109.121094,26.796875 C109.121094,25.7320759 109.228595,24.755293 109.443596,23.8665264 C108.071699,24.2654098 106.374871,24.4735755 104.355469,24.4921875 C104.264323,25.5598958 104.065755,26.624349 103.759766,27.6855469 C103.453776,28.7467448 103.066406,29.7298177 102.597656,30.6347656 C102.128906,31.5397135 101.539714,32.2753906 100.830078,32.8417969 C100.120443,33.4082031 99.3554688,33.6914062 98.5351562,33.6914062 C97.4414062,33.6914062 96.4322917,33.264974 95.5078125,32.4121094 C94.5833333,31.5592448 93.8509115,30.3971354 93.3105469,28.9257812 L93.217,28.659 L93.1365593,28.9656409 C92.9261001,29.7500797 92.7204241,30.4268973 92.5195313,30.9960938 C92.2851563,31.6601562 92.014974,32.3177083 91.7089844,32.96875 C91.4029948,33.6197917 91.0904948,34.140625 90.7714844,34.53125 C90.452474,34.921875 90.0911458,35.2376302 89.6875,35.4785156 C89.2838542,35.719401 88.8606771,35.8398438 88.4179688,35.8398438 C86.6471354,35.8398438 85.2311198,34.3977865 84.1699219,31.5136719 C83.108724,28.6295573 82.578125,24.765625 82.578125,19.921875 C82.578125,17.6822917 82.6757813,15.390625 82.8710938,13.046875 C81.1783854,13.2421875 79.609375,13.3463542 78.1640625,13.359375 C76.40625,13.359375 74.7688802,13.1705729 73.2519531,12.7929688 C71.735026,12.4153646 70.7747396,11.8359375 70.3710938,11.0546875 C70.2669271,10.8854167 70.234375,10.703125 70.2734375,10.5078125 C70.3125,10.3125 70.4166667,10.15625 70.5859375,10.0390625 C70.703125,9.94791667 70.8333333,9.91210938 70.9765625,9.93164062 C71.1197917,9.95117188 71.2434896,10.0130208 71.3476563,10.1171875 C71.8164063,10.6510417 72.7408854,11.0872396 74.1210938,11.4257812 C75.3841146,11.7122396 76.6861979,11.8554688 78.0273438,11.8554688 C79.6419271,11.8424479 81.3085938,11.7317708 83.0273438,11.5234375 L83.1125217,10.7165527 C83.4268302,7.84301758 83.7630208,5.90494792 84.1210938,4.90234375 C84.3294271,4.31640625 84.7135417,4.0234375 85.2734375,4.0234375 C85.8463542,4.0234375 86.2695313,4.19270833 86.5429688,4.53125 C86.7643229,4.81770833 86.8359375,5.13671875 86.7578125,5.48828125 C86.4453125,7.02473958 86.1588542,8.91276042 85.8984375,11.1523438 C86.8619792,11.0221354 87.7994792,10.8854167 88.7109375,10.7421875 L90.5614895,10.4797363 C92.7240555,10.1859538 94.1970486,10.0390625 94.9804688,10.0390625 C97.3372396,10.0390625 98.8997396,10.5794271 99.6679688,11.6601562 C99.8763021,11.9335938 99.9088542,12.2265625 99.765625,12.5390625 C99.6614583,12.7864583 99.4726563,12.9231771 99.1992188,12.9492188 C98.8997396,12.9492188 98.6783854,12.8190104 98.5351563,12.5585938 C98.0924479,11.9075521 96.9661458,11.5820312 95.15625,11.5820312 L94.9091624,11.5863073 C93.8339035,11.6205159 91.7157452,11.859976 88.5546875,12.3046875 L87.8276467,12.4099171 L85.7421875,12.6953125 C85.46875,15.390625 85.3320313,18.0078125 85.3320313,20.546875 C85.3320313,22.9427083 85.4882813,25.2050781 85.8007813,27.3339844 C86.1132813,29.4628906 86.5299479,31.1621094 87.0507813,32.4316406 C87.5716146,33.7011719 88.125,34.3359375 88.7109375,34.3359375 C89.3098958,34.3359375 90.0292969,33.2063802 90.8691406,30.9472656 C91.4904838,29.2759005 92.0459026,27.3497462 92.5353969,25.1688028 C92.5113482,24.8254574 92.5,24.4760101 92.5,24.1210938 C92.5,22.8710938 92.6171875,21.9954427 92.8515625,21.4941406 C93.0859375,20.9928385 93.4895833,20.7421875 94.0625,20.7421875 C94.7265625,20.7421875 95.2083333,20.9244792 95.5078125,21.2890625 C95.5078125,21.3020833 95.5143229,21.3151042 95.5273438,21.328125 L95.5664062,21.3671875 C95.7096354,21.5755208 95.7617188,21.8033854 95.7226562,22.0507812 C95.5664062,22.9882812 95.4882812,23.9257812 95.4882812,24.8632812 C95.4882812,26.0091146 95.6445312,27.1451823 95.9570312,28.2714844 C96.2695312,29.3977865 96.6731771,30.3125 97.1679688,31.015625 C97.6627604,31.71875 98.1640625,32.0703125 98.671875,32.0703125 C99.4140625,32.0703125 100.179036,31.2890625 100.966797,29.7265625 C101.754557,28.1640625 102.246094,26.3867188 102.441406,24.3945312 C101.035156,24.2252604 99.7330729,23.8802083 98.5351562,23.359375 C97.3372396,22.8385417 96.3736979,22.1484375 95.6445312,21.2890625 C94.6940104,20.1822917 94.2317708,18.9192708 94.2578125,17.5 C94.2578125,16.2760417 94.6223958,15.2832031 95.3515625,14.5214844 C96.0807292,13.7597656 97.0247396,13.3789063 98.1835938,13.3789063 C99.9674479,13.3789063 101.448568,14.280599 102.626953,16.0839844 C103.805339,17.8873698 104.407552,20.1822917 104.433594,22.96875 L104.550781,22.96875 C105.46224,22.96875 106.464844,22.8776042 107.558594,22.6953125 C108.541349,22.5315199 109.38219,22.3256786 110.081116,22.0777885 C110.255875,21.7123214 110.457462,21.3685735 110.683594,21.0449219 C111.72526,19.5540365 113.072917,18.8085938 114.726562,18.8085938 C115.625,18.8085938 116.458333,19.0364583 117.226562,19.4921875 C117.34375,14.4791667 118.092448,10.1302083 119.472656,6.4453125 C120.227865,4.42708333 121.110026,2.88085937 122.119141,1.80664062 C123.128255,0.732421875 124.192708,0.1953125 125.3125,0.1953125 Z M157.480469,28.75 C155.071615,30.625 153.867188,32.3958333 153.867188,34.0625 C153.867188,34.140625 153.886719,34.1992188 153.925781,34.2382812 C153.951823,34.2643229 153.997396,34.2773438 154.0625,34.2773438 C154.960938,34.2122396 155.826823,33.7207031 156.660156,32.8027344 C157.49349,31.8847656 157.910156,30.9635417 157.910156,30.0390625 C157.910156,29.5442708 157.766927,29.1145833 157.480469,28.75 Z M115.15625,20.4492188 C114.466146,20.4492188 113.75651,21.0384115 113.027344,22.2167969 C112.298177,23.3951823 111.933594,25.0325521 111.933594,27.1289062 C111.933594,28.1054688 112.060547,29.0136719 112.314453,29.8535156 C112.568359,30.6933594 112.864583,31.3020833 113.203125,31.6796875 C113.242188,31.71875 113.28776,31.71875 113.339844,31.6796875 C114.016927,31.0807292 114.716797,29.8339844 115.439453,27.9394531 C116.162109,26.0449219 116.751302,24.0625 117.207031,21.9921875 C116.998698,21.5755208 116.689453,21.2141927 116.279297,20.9082031 C115.869141,20.6022135 115.494792,20.4492188 115.15625,20.4492188 Z M98.4375,15.0585938 C97.8776042,15.0585938 97.421875,15.3385417 97.0703125,15.8984375 C96.71875,16.4583333 96.5429688,17.0898438 96.5429688,17.7929688 C96.5429688,19.1210938 97.109375,20.2213542 98.2421875,21.09375 C99.375,21.9661458 100.800781,22.5390625 102.519531,22.8125 C102.50651,21.6145833 102.275391,20.4003906 101.826172,19.1699219 C101.376953,17.9394531 100.836589,16.9466146 100.205078,16.1914062 C99.5735677,15.4361979 98.984375,15.0585938 98.4375,15.0585938 Z M138.457031,15.0585938 C137.897135,15.0585938 137.441406,15.3385417 137.089844,15.8984375 C136.738281,16.4583333 136.5625,17.0898438 136.5625,17.7929688 C136.5625,19.1210938 137.128906,20.2213542 138.261719,21.09375 C139.394531,21.9661458 140.820312,22.5390625 142.539062,22.8125 C142.526042,21.6145833 142.294922,20.4003906 141.845703,19.1699219 C141.396484,17.9394531 140.85612,16.9466146 140.224609,16.1914062 C139.593099,15.4361979 139.003906,15.0585938 138.457031,15.0585938 Z M125.742188,1.81640625 C124.960938,1.81640625 124.117839,2.69856771 123.212891,4.46289062 C122.307943,6.22721354 121.539714,8.53515625 120.908203,11.3867188 C120.276693,14.2382812 119.960938,17.0572917 119.960938,19.84375 L119.960938,20.8007812 C121.132812,20.3710938 122.220052,19.6028646 123.222656,18.4960938 C124.22526,17.3893229 125.039062,16.155599 125.664062,14.7949219 C126.289062,13.4342448 126.774089,12.0442708 127.119141,10.625 C127.464193,9.20572917 127.636719,7.89713542 127.636719,6.69921875 C127.636719,5.30598958 127.441406,4.14388021 127.050781,3.21289062 C126.660156,2.28190104 126.223958,1.81640625 125.742188,1.81640625 Z" id="myTodosDark" fill="#FFFFFF" opacity="0.704488845"></path>
        </g>
    </g>
</svg>