<?xml version="1.0" encoding="UTF-8"?>
<svg width="175px" height="59px" viewBox="0 0 175 59" version="1.1" xmlns="http://www.w3.org/2000/svg" xmlns:xlink="http://www.w3.org/1999/xlink">
    <title>myTodosLightShadow</title>
    <g id="Page-1" stroke="none" stroke-width="1" fill="none" fill-rule="evenodd">
        <g id="myTodosLightShadow" transform="translate(0.0662, 0.4126)" fill-rule="nonzero">
            <path d="M12.7539062,6 C13.4960938,6 14.140625,6.15950521 14.6875,6.47851562 C15.234375,6.79752604 15.6608073,7.19466146 15.9667969,7.66992188 C16.2727865,8.14518229 16.5169271,8.74414062 16.6992188,9.46679688 C16.8815104,10.1894531 16.9986979,10.8763021 17.0507812,11.5273438 C17.1028646,12.1783854 17.1289062,12.9140625 17.1289062,13.734375 L17.1260313,14.1255 C17.1078229,15.4349167 17.003125,17.4174479 16.8119375,20.0730937 L16.5977648,22.9472928 C16.3073278,26.9268754 16.1263021,30.0147569 16.0546875,32.2109375 C16.8229167,27.5234375 17.9166667,23.2135417 19.3359375,19.28125 C20.7552083,15.3489583 22.3339844,12.2402344 24.0722656,9.95507812 C25.8105469,7.66992188 27.4934896,6.52734375 29.1210938,6.52734375 C30.7226562,6.52734375 31.8847656,7.33789062 32.6074219,8.95898438 C33.2986583,10.5095958 33.6593034,12.9626322 33.6893571,16.3180935 L33.6899115,17.2293726 C33.6769571,19.2632135 33.5797991,22.4927455 33.3984375,26.9179688 C34.3098958,23.6627604 35.4557292,20.514974 36.8359375,17.4746094 C38.2161458,14.4342448 39.6842448,11.9082031 41.2402344,9.89648438 C42.796224,7.88476562 44.1796875,6.87890625 45.390625,6.87890625 C46.5364583,6.87890625 47.3665365,7.31510417 47.8808594,8.1875 C48.3951823,9.05989583 48.6523438,10.4596354 48.6523438,12.3867188 C48.6523438,14.458478 48.5083108,17.0806488 48.220245,20.2532311 L48.1054688,21.46875 C47.6106771,26.6119792 47.3632812,31.1367188 47.3632812,35.0429688 C47.3632812,37.0481771 47.5195312,38.9296875 47.8320312,40.6875 C48.1445312,42.4453125 48.5872396,43.6106771 49.1601562,44.1835938 C49.2252604,44.2356771 49.2838542,44.2421875 49.3359375,44.203125 C49.8177083,43.9557292 50.3515625,43.2851562 50.9375,42.1914062 C51.5234375,41.0976562 52.1289062,39.6425781 52.7539062,37.8261719 L53.5913086,35.3579102 C53.7141927,34.9892578 53.8287354,34.6419678 53.9349365,34.31604 L54.2285156,33.4023438 C54.4548493,32.6863063 54.708495,31.8532175 54.9894526,30.9030772 C54.9706045,30.4956982 54.9609375,30.0725414 54.9609375,29.6328125 C54.9609375,27.7317708 55.1236979,25.8697917 55.4492188,24.046875 C55.4882812,23.8255208 55.6347656,23.6269531 55.8886719,23.4511719 C56.1425781,23.2753906 56.4322917,23.1875 56.7578125,23.1875 C57.3697917,23.1875 57.8255208,23.3697917 58.125,23.734375 C58.3300781,23.9964193 58.4155273,24.2734172 58.3813477,24.5653687 L58.359375,24.6914062 C57.9817708,26.7486979 57.8059896,28.8125 57.8320312,30.8828125 C57.8320312,32.0416667 57.9329427,33.1354167 58.1347656,34.1640625 C58.3365885,35.1927083 58.5546875,35.8177083 58.7890625,36.0390625 C58.8541667,36.1041667 58.9453125,36.1106771 59.0625,36.0585938 C59.7265625,35.7200521 60.5110677,34.75 61.4160156,33.1484375 C62.3209635,31.546875 63.1217448,29.889974 63.8183594,28.1777344 C64.514974,26.4654948 65.0911458,24.8802083 65.546875,23.421875 L65.546875,23.4023438 L65.5664062,23.3632812 C65.6184896,23.2591146 65.6640625,23.1809896 65.703125,23.1289062 C65.9375,22.8164062 66.2630208,22.6471354 66.6796875,22.6210938 C67.0572917,22.6341146 67.4023438,22.7513021 67.7148438,22.9726562 C68.0273438,23.1940104 68.2486979,23.4869792 68.3789062,23.8515625 C69.1471354,26.2473958 69.5638021,29.3007812 69.6289062,33.0117188 C72.2070312,31.3450521 74.0820312,29.7304688 75.2539062,28.1679688 C75.4882812,27.8684896 75.7877604,27.8489583 76.1523438,28.109375 C76.5299479,28.3828125 76.6145833,28.6757812 76.40625,28.9882812 C75.0520833,31.0065104 72.7929688,32.9986979 69.6289062,34.9648438 C69.5117188,41.5533854 68.3919271,46.9505208 66.2695312,51.15625 C65.1236979,53.421875 63.7467448,55.140625 62.1386719,56.3125 C60.530599,57.484375 58.7434896,58.0703125 56.7773438,58.0703125 C55.8007812,58.0703125 54.9186198,57.8457031 54.1308594,57.3964844 C53.343099,56.9472656 52.718099,56.3678385 52.2558594,55.6582031 C51.7936198,54.9485677 51.4388021,54.1966146 51.1914062,53.4023438 C50.9440104,52.6080729 50.8203125,51.8333333 50.8203125,51.078125 C50.8203125,50.0494792 50.9667969,49.0533854 51.2597656,48.0898438 C51.5527344,47.1263021 51.9010417,46.2734375 52.3046875,45.53125 C52.7083333,44.7890625 53.3072917,44.0143229 54.1015625,43.2070312 L54.6807861,42.628418 C55.2435303,42.0766602 55.7568359,41.6054688 56.2207031,41.2148438 C56.7773438,40.7460938 57.5396484,40.1956055 58.5076172,39.5633789 L59.4863281,38.9363281 C60.2109375,38.4778646 60.8238932,38.1023437 61.3251953,37.8097656 L62.7612305,36.9936523 L66.8359375,34.7109375 L66.8359375,34.1445312 C66.8359375,31.5924479 66.6210938,29.0533854 66.1914062,26.5273438 L65.8419461,27.4847819 C64.5683006,30.9133301 63.3794488,33.4392361 62.2753906,35.0625 C61.0709635,36.8333333 59.8372396,37.71875 58.5742188,37.71875 C57.4414063,37.71875 56.5559896,37.0026042 55.9179688,35.5703125 C55.8064415,35.3199453 55.7046619,35.0528679 55.6126299,34.7690804 L55.3587468,35.6288146 C55.3170181,35.7677479 55.2755678,35.9044992 55.234375,36.0390625 C54.6484375,37.953125 54.0234375,39.6848958 53.359375,41.234375 C52.6953125,42.7838542 52.0052083,43.9329427 51.2890625,44.6816406 C50.5729167,45.4303385 49.8111979,45.8046875 49.0039062,45.8046875 C48.2356771,45.8046875 47.5585937,45.5019531 46.9726562,44.8964844 C46.3867188,44.2910156 45.9342448,43.5423177 45.6152344,42.6503906 C45.296224,41.7584635 45.0390625,40.6940104 44.84375,39.4570312 C44.6484375,38.2200521 44.5214844,37.0839844 44.4628906,36.0488281 C44.4042969,35.0136719 44.375,33.9361979 44.375,32.8164062 C44.375,28.6236979 44.7070312,23.1158854 45.3710938,16.2929688 L45.6020937,13.6859687 C45.7345521,12.1000104 45.8007812,11.0679687 45.8007812,10.5898438 C45.8007812,9.67838542 45.7356771,9.0859375 45.6054688,8.8125 L45.5664062,8.75390625 C45.5403646,8.75390625 45.5172164,8.75969329 45.4969618,8.77126736 L45.46875,8.79296875 C44.375,9.52213542 43.2877604,10.6289062 42.2070312,12.1132812 C41.1263021,13.5976562 40.139974,15.2675781 39.2480469,17.1230469 C38.3561198,18.9785156 37.5,21.0423177 36.6796875,23.3144531 C35.859375,25.5865885 35.1334635,27.8457031 34.5019531,30.0917969 C33.8704427,32.3378906 33.3072917,34.6197917 32.8125,36.9375 L32.8100586,36.9643555 L32.8027344,37.0058594 C32.796224,37.0384115 32.7929688,37.0611979 32.7929688,37.0742188 C32.7408854,37.4908854 32.5813802,37.8098958 32.3144531,38.03125 C32.047526,38.2526042 31.7513021,38.3502604 31.4257812,38.3242188 C31.0872396,38.2981771 30.797526,38.1516927 30.5566406,37.8847656 C30.3157552,37.6178385 30.1953125,37.2304688 30.1953125,36.7226562 L30.2078125,35.3742188 C30.2383681,33.4912326 30.3249421,30.7469618 30.4675347,27.1414063 L30.6671875,22.0369141 C30.7692708,19.1776693 30.8203125,17.0872396 30.8203125,15.765625 C30.8203125,14.203125 30.7519531,12.8391927 30.6152344,11.6738281 C30.4785156,10.5084635 30.3125,9.65234375 30.1171875,9.10546875 C29.921875,8.55859375 29.7070312,8.28515625 29.4726562,8.28515625 C28.4179688,8.28515625 27.2428385,9.09570312 25.9472656,10.7167969 C24.6516927,12.3378906 23.3984375,14.5416667 22.1875,17.328125 C20.7421875,20.7005208 19.5247396,24.6002604 18.5351562,29.0273438 C17.6216947,33.1138822 16.9578634,37.4167668 16.5436622,41.9359976 L16.4453125,43.0703125 C16.3802083,43.9427083 16.2434896,44.5416667 16.0351562,44.8671875 C15.7617187,45.2578125 15.390625,45.453125 14.921875,45.453125 C14.7265625,45.4661458 14.5540365,45.4140625 14.4042969,45.296875 C14.2545573,45.1796875 14.1471354,45.0299479 14.0820312,44.8476562 C13.4695312,42.8226563 13.1510313,39.7476562 13.1265313,35.6226562 L13.125,35.1015625 C13.125,30.4140625 13.3762552,25.0546009 13.8787656,19.0231778 L14.0860172,16.555157 C14.2396099,14.6312329 14.3164062,13.3003472 14.3164062,12.5625 C14.3164062,9.34635417 13.8932292,7.73828125 13.046875,7.73828125 C12.109375,7.73828125 10.9016927,8.39583333 9.42382812,9.7109375 C7.94596354,11.0260417 6.9921875,12.3476562 6.5625,13.6757812 C6.55381944,13.6757812 6.55092593,13.6786748 6.55381944,13.6844618 L6.5625,13.6953125 C6.69270833,13.890625 6.71223958,14.0859375 6.62109375,14.28125 C6.49088542,14.5286458 6.2890625,14.6523438 6.015625,14.6523438 C5.72916667,14.6523438 5.48828125,14.5449219 5.29296875,14.3300781 C5.09765625,14.1152344 5,13.8450521 5,13.5195312 C5,12.6861979 5.45572917,11.6673177 6.3671875,10.4628906 C7.27864583,9.25846354 8.35611979,8.21354167 9.59960938,7.328125 C10.843099,6.44270833 11.8945312,6 12.7539062,6 Z M66.7773438,36.6445312 L65.5750868,37.3194444 C65.3609664,37.4380787 65.1888021,37.5321181 65.0585938,37.6015625 L63.3500139,38.5667992 C63.0193309,38.7554087 62.7213156,38.9267597 62.455968,39.0808524 L61.9140625,39.3984375 C61.28125,39.7734375 60.4665039,40.2829102 59.4698242,40.9268555 L59.1308594,41.1464844 C57.9785156,41.8951823 57.1028646,42.5690104 56.5039062,43.1679688 C55.9049479,43.7669271 55.2766927,44.4733073 54.6191406,45.2871094 C53.9615885,46.1009115 53.4928385,46.9602865 53.2128906,47.8652344 C52.9329427,48.7701823 52.7929688,49.7369792 52.7929688,50.765625 C52.7929688,51.6640625 52.9622396,52.546224 53.3007812,53.4121094 C53.6393229,54.2779948 54.1308594,54.9973958 54.7753906,55.5703125 C55.4199219,56.1432292 56.1328125,56.4296875 56.9140625,56.4296875 C58.6458333,56.4296875 60.234375,55.5800781 61.6796875,53.8808594 C63.125,52.1816406 64.2936198,49.828125 65.1855469,46.8203125 C66.077474,43.8125 66.6080729,40.4205729 66.7773438,36.6445312 Z M130.3125,6.1953125 C131.601562,6.1953125 132.578125,6.7421875 133.242188,7.8359375 C133.90625,8.9296875 134.238281,10.5247396 134.238281,12.6210938 C134.238281,14.2486979 134.013672,15.9153646 133.564453,17.6210938 C133.115234,19.3268229 132.5,20.9121094 131.71875,22.3769531 C130.9375,23.8417969 129.960938,25.1210938 128.789062,26.2148438 C127.617188,27.3085937 126.360677,28.03125 125.019531,28.3828125 C125.136719,30.4401042 125.39388,32.2727865 125.791016,33.8808594 C126.188151,35.4889323 126.656901,36.7421875 127.197266,37.640625 C127.73763,38.5390625 128.28776,39.2161458 128.847656,39.671875 C129.407552,40.1276042 129.947917,40.3554688 130.46875,40.3554688 C131.835938,40.3554688 133.258464,39.2552083 134.736328,37.0546875 C135.88875,35.3387463 136.825418,33.3258957 137.546332,31.0161358 C137.527743,30.7209728 137.519531,30.4230121 137.519531,30.1210938 C137.519531,28.8710938 137.636719,27.9954427 137.871094,27.4941406 C138.105469,26.9928385 138.509115,26.7421875 139.082031,26.7421875 C139.746094,26.7421875 140.227865,26.9244792 140.527344,27.2890625 C140.527344,27.3020833 140.533854,27.3151042 140.546875,27.328125 L140.585938,27.3671875 C140.729167,27.5755208 140.78125,27.8033854 140.742188,28.0507812 C140.585938,28.9882812 140.507812,29.9257812 140.507812,30.8632812 C140.507812,32.0091146 140.664062,33.1451823 140.976562,34.2714844 C141.289062,35.3977865 141.692708,36.3125 142.1875,37.015625 C142.682292,37.71875 143.183594,38.0703125 143.691406,38.0703125 C144.433594,38.0703125 145.198568,37.2890625 145.986328,35.7265625 C146.774089,34.1640625 147.265625,32.3867188 147.460938,30.3945312 C146.054688,30.2252604 144.752604,29.8802083 143.554688,29.359375 C142.356771,28.8385417 141.393229,28.1484375 140.664062,27.2890625 C139.713542,26.1822917 139.251302,24.9192708 139.277344,23.5 C139.277344,22.2760417 139.641927,21.2832031 140.371094,20.5214844 C141.10026,19.7597656 142.044271,19.3789062 143.203125,19.3789062 C144.986979,19.3789062 146.468099,20.280599 147.646484,22.0839844 C148.82487,23.8873698 149.427083,26.1822917 149.453125,28.96875 L149.570312,28.96875 C150.481771,28.96875 151.484375,28.8776042 152.578125,28.6953125 C153.256836,28.582194 153.86786,28.4490201 154.411196,28.2957907 C154.229873,27.8176218 154.140625,27.3191179 154.140625,26.8007812 C154.140625,25.8632812 154.514974,24.922526 155.263672,23.9785156 C156.01237,23.0345052 156.972656,22.2630208 158.144531,21.6640625 C159.316406,21.0651042 160.488281,20.765625 161.660156,20.765625 C162.845052,20.765625 163.880208,21.0878906 164.765625,21.7324219 C165.651042,22.3769531 166.09375,23.1354167 166.09375,24.0078125 C166.09375,24.5026042 165.970052,25.0039062 165.722656,25.5117188 C165.47526,26.0195312 165.188802,26.2734375 164.863281,26.2734375 C164.667969,26.2734375 164.492188,26.1822917 164.335938,26 C164.153646,25.7526042 164.101562,25.4726562 164.179688,25.1601562 C164.179688,25.1210938 164.186198,25.0755208 164.199219,25.0234375 C164.21224,24.9713542 164.22526,24.9257812 164.238281,24.8867188 C164.303385,24.6393229 164.348958,24.3658854 164.375,24.0664062 C164.375,23.7539062 164.235026,23.4772135 163.955078,23.2363281 C163.67513,22.9954427 163.28776,22.875 162.792969,22.875 C162.141927,22.875 161.363932,23.125651 160.458984,23.6269531 C159.554036,24.1282552 158.759766,24.7760417 158.076172,25.5703125 C157.392578,26.3645833 157.050781,27.1197917 157.050781,27.8359375 C157.050781,28.2005208 157.141927,28.5423177 157.324219,28.8613281 C157.50651,29.1803385 157.802734,29.4928385 158.212891,29.7988281 C158.623047,30.1048177 158.990885,30.3522135 159.316406,30.5410156 L159.743042,30.7822571 C159.905396,30.8722839 160.087891,30.9719238 160.290527,31.0811768 L161.519531,31.7396484 C162.084635,32.0486328 162.522135,32.3033854 162.832031,32.5039062 L163.339844,32.1914062 C165.097656,31.0716146 166.884766,30.1178385 168.701172,29.3300781 C170.517578,28.5423177 171.979167,28.0507812 173.085938,27.8554688 C173.307292,27.8033854 173.515625,27.8326823 173.710938,27.9433594 C173.90625,28.0540365 174.029948,28.2200521 174.082031,28.4414063 C174.134115,28.6367188 174.121094,28.7994792 174.042969,28.9296875 C173.951823,29.0859375 173.821615,29.1835938 173.652344,29.2226562 C170.019531,30.3945312 166.855469,31.8398438 164.160156,33.5585938 C165.045573,34.4179688 165.488281,35.375 165.488281,36.4296875 C165.488281,37.8229167 164.899089,39.1119792 163.720703,40.296875 C162.542318,41.4817708 161.119792,42.0742188 159.453125,42.0742188 C158.658854,42.0742188 158.014323,41.8496094 157.519531,41.4003906 C157.02474,40.9511719 156.777344,40.4401042 156.777344,39.8671875 C156.777344,37.9921875 158.248698,35.9283854 161.191406,33.6757812 C160.800781,33.4414062 160.371094,33.2070312 159.902344,32.9726562 C159.876302,32.9552951 159.840133,32.9350405 159.793837,32.9118924 L159.482422,32.7675781 C159.410807,32.735026 159.342448,32.6992188 159.277344,32.6601562 C158.58724,32.2955729 157.978516,31.9375 157.451172,31.5859375 C156.923828,31.234375 156.386719,30.8144531 155.839844,30.3261719 C155.593733,30.1064303 155.373334,29.8754812 155.178647,29.6333245 C153.695083,30.1838189 151.760018,30.4702058 149.375,30.4921875 C149.283854,31.5598958 149.085286,32.624349 148.779297,33.6855469 C148.473307,34.7467448 148.085938,35.7298177 147.617188,36.6347656 C147.148438,37.5397135 146.559245,38.2753906 145.849609,38.8417969 C145.139974,39.4082031 144.375,39.6914062 143.554688,39.6914062 C142.460938,39.6914062 141.451823,39.264974 140.527344,38.4121094 C139.602865,37.5592448 138.870443,36.3971354 138.330078,34.9257812 C138.227952,34.6477024 138.135476,34.3649725 138.052651,34.0775917 C137.831316,34.6105073 137.5817,35.1668852 137.304688,35.7460938 C136.731771,36.9440104 136.119792,37.9759115 135.46875,38.8417969 C134.817708,39.7076823 134.029948,40.4335938 133.105469,41.0195312 C132.18099,41.6054688 131.210938,41.8984375 130.195312,41.8984375 C129.075521,41.8984375 128.024089,41.5403646 127.041016,40.8242188 C126.057943,40.1080729 125.201823,39.0794271 124.472656,37.7382812 C123.720703,36.3537326 123.154749,34.7394206 122.774794,32.8953451 L122.675,32.387 L122.29552,33.4629305 C122.136081,33.9061703 121.989397,34.3026414 121.855469,34.6523438 C121.621094,35.2643229 121.350911,35.8893229 121.044922,36.5273438 C120.738932,37.1653646 120.442708,37.6731771 120.15625,38.0507812 C119.869792,38.4283854 119.544271,38.7376302 119.179688,38.9785156 C118.815104,39.219401 118.4375,39.3398438 118.046875,39.3398438 C116.979167,39.3398438 116.057943,38.6920573 115.283203,37.3964844 C114.508464,36.1009115 114.121094,34.5677083 114.121094,32.796875 C114.121094,31.7320759 114.228595,30.755293 114.443596,29.8665264 C113.071699,30.2654098 111.374871,30.4735755 109.355469,30.4921875 C109.264323,31.5598958 109.065755,32.624349 108.759766,33.6855469 C108.453776,34.7467448 108.066406,35.7298177 107.597656,36.6347656 C107.128906,37.5397135 106.539714,38.2753906 105.830078,38.8417969 C105.120443,39.4082031 104.355469,39.6914062 103.535156,39.6914062 C102.441406,39.6914062 101.432292,39.264974 100.507812,38.4121094 C99.5833333,37.5592448 98.8509115,36.3971354 98.3105469,34.9257812 L98.217,34.659 L98.1365593,34.9656409 C97.9261001,35.7500797 97.7204241,36.4268973 97.5195312,36.9960938 C97.2851562,37.6601562 97.014974,38.3177083 96.7089844,38.96875 C96.4029948,39.6197917 96.0904948,40.140625 95.7714844,40.53125 C95.452474,40.921875 95.0911458,41.2376302 94.6875,41.4785156 C94.2838542,41.719401 93.8606771,41.8398438 93.4179688,41.8398438 C91.6471354,41.8398438 90.2311198,40.3977865 89.1699219,37.5136719 C88.108724,34.6295573 87.578125,30.765625 87.578125,25.921875 C87.578125,23.6822917 87.6757812,21.390625 87.8710938,19.046875 C86.1783854,19.2421875 84.609375,19.3463542 83.1640625,19.359375 C81.40625,19.359375 79.7688802,19.1705729 78.2519531,18.7929688 C76.735026,18.4153646 75.7747396,17.8359375 75.3710938,17.0546875 C75.2669271,16.8854167 75.234375,16.703125 75.2734375,16.5078125 C75.3125,16.3125 75.4166667,16.15625 75.5859375,16.0390625 C75.703125,15.9479167 75.8333333,15.9121094 75.9765625,15.9316406 C76.1197917,15.9511719 76.2434896,16.0130208 76.3476562,16.1171875 C76.8164062,16.6510417 77.7408854,17.0872396 79.1210938,17.4257812 C80.3841146,17.7122396 81.6861979,17.8554688 83.0273438,17.8554688 C84.6419271,17.8424479 86.3085938,17.7317708 88.0273438,17.5234375 L88.1125217,16.7165527 C88.4268302,13.8430176 88.7630208,11.9049479 89.1210938,10.9023438 C89.3294271,10.3164062 89.7135417,10.0234375 90.2734375,10.0234375 C90.8463542,10.0234375 91.2695312,10.1927083 91.5429688,10.53125 C91.7643229,10.8177083 91.8359375,11.1367188 91.7578125,11.4882812 C91.4453125,13.0247396 91.1588542,14.9127604 90.8984375,17.1523438 C91.8619792,17.0221354 92.7994792,16.8854167 93.7109375,16.7421875 L95.5614895,16.4797363 C97.7240555,16.1859538 99.1970486,16.0390625 99.9804688,16.0390625 C102.33724,16.0390625 103.89974,16.5794271 104.667969,17.6601562 C104.876302,17.9335938 104.908854,18.2265625 104.765625,18.5390625 C104.661458,18.7864583 104.472656,18.9231771 104.199219,18.9492188 C103.89974,18.9492188 103.678385,18.8190104 103.535156,18.5585938 C103.092448,17.9075521 101.966146,17.5820312 100.15625,17.5820312 L99.9091624,17.5863073 C98.8339035,17.6205159 96.7157452,17.859976 93.5546875,18.3046875 L92.8276467,18.4099171 L90.8486938,18.6795959 C90.8102417,18.6851908 90.7747396,18.6904297 90.7421875,18.6953125 C90.46875,21.390625 90.3320312,24.0078125 90.3320312,26.546875 C90.3320312,28.9427083 90.4882812,31.2050781 90.8007812,33.3339844 C91.1132812,35.4628906 91.5299479,37.1621094 92.0507812,38.4316406 C92.5716146,39.7011719 93.125,40.3359375 93.7109375,40.3359375 C94.3098958,40.3359375 95.0292969,39.2063802 95.8691406,36.9472656 C96.4904838,35.2759005 97.0459026,33.3497462 97.5353969,31.1688028 C97.5113482,30.8254574 97.5,30.4760101 97.5,30.1210938 C97.5,28.8710938 97.6171875,27.9954427 97.8515625,27.4941406 C98.0859375,26.9928385 98.4895833,26.7421875 99.0625,26.7421875 C99.7265625,26.7421875 100.208333,26.9244792 100.507812,27.2890625 C100.507812,27.3020833 100.514323,27.3151042 100.527344,27.328125 L100.566406,27.3671875 C100.709635,27.5755208 100.761719,27.8033854 100.722656,28.0507812 C100.566406,28.9882812 100.488281,29.9257812 100.488281,30.8632812 C100.488281,32.0091146 100.644531,33.1451823 100.957031,34.2714844 C101.269531,35.3977865 101.673177,36.3125 102.167969,37.015625 C102.66276,37.71875 103.164062,38.0703125 103.671875,38.0703125 C104.414062,38.0703125 105.179036,37.2890625 105.966797,35.7265625 C106.754557,34.1640625 107.246094,32.3867188 107.441406,30.3945312 C106.035156,30.2252604 104.733073,29.8802083 103.535156,29.359375 C102.33724,28.8385417 101.373698,28.1484375 100.644531,27.2890625 C99.6940104,26.1822917 99.2317708,24.9192708 99.2578125,23.5 C99.2578125,22.2760417 99.6223958,21.2832031 100.351562,20.5214844 C101.080729,19.7597656 102.02474,19.3789062 103.183594,19.3789062 C104.967448,19.3789062 106.448568,20.280599 107.626953,22.0839844 C108.805339,23.8873698 109.407552,26.1822917 109.433594,28.96875 L109.550781,28.96875 C110.46224,28.96875 111.464844,28.8776042 112.558594,28.6953125 C113.541349,28.5315199 114.38219,28.3256786 115.081116,28.0777885 C115.255875,27.7123214 115.457462,27.3685735 115.683594,27.0449219 C116.72526,25.5540365 118.072917,24.8085938 119.726562,24.8085938 C120.625,24.8085938 121.458333,25.0364583 122.226562,25.4921875 C122.34375,20.4791667 123.092448,16.1302083 124.472656,12.4453125 C125.227865,10.4270833 126.110026,8.88085938 127.119141,7.80664062 C128.128255,6.73242188 129.192708,6.1953125 130.3125,6.1953125 Z M162.480469,34.75 C160.071615,36.625 158.867188,38.3958333 158.867188,40.0625 C158.867188,40.140625 158.886719,40.1992188 158.925781,40.2382812 C158.951823,40.2643229 158.997396,40.2773438 159.0625,40.2773438 C159.960938,40.2122396 160.826823,39.7207031 161.660156,38.8027344 C162.49349,37.8847656 162.910156,36.9635417 162.910156,36.0390625 C162.910156,35.5442708 162.766927,35.1145833 162.480469,34.75 Z M120.15625,26.4492188 C119.466146,26.4492188 118.75651,27.0384115 118.027344,28.2167969 C117.298177,29.3951823 116.933594,31.0325521 116.933594,33.1289062 C116.933594,34.1054688 117.060547,35.0136719 117.314453,35.8535156 C117.568359,36.6933594 117.864583,37.3020833 118.203125,37.6796875 C118.242188,37.71875 118.28776,37.71875 118.339844,37.6796875 C119.016927,37.0807292 119.716797,35.8339844 120.439453,33.9394531 C121.162109,32.0449219 121.751302,30.0625 122.207031,27.9921875 C121.998698,27.5755208 121.689453,27.2141927 121.279297,26.9082031 C120.869141,26.6022135 120.494792,26.4492188 120.15625,26.4492188 Z M103.4375,21.0585938 C102.877604,21.0585938 102.421875,21.3385417 102.070312,21.8984375 C101.71875,22.4583333 101.542969,23.0898438 101.542969,23.7929688 C101.542969,25.1210938 102.109375,26.2213542 103.242188,27.09375 C104.375,27.9661458 105.800781,28.5390625 107.519531,28.8125 C107.50651,27.6145833 107.275391,26.4003906 106.826172,25.1699219 C106.376953,23.9394531 105.836589,22.9466146 105.205078,22.1914062 C104.573568,21.4361979 103.984375,21.0585938 103.4375,21.0585938 Z M143.457031,21.0585938 C142.897135,21.0585938 142.441406,21.3385417 142.089844,21.8984375 C141.738281,22.4583333 141.5625,23.0898438 141.5625,23.7929688 C141.5625,25.1210938 142.128906,26.2213542 143.261719,27.09375 C144.394531,27.9661458 145.820312,28.5390625 147.539062,28.8125 C147.526042,27.6145833 147.294922,26.4003906 146.845703,25.1699219 C146.396484,23.9394531 145.85612,22.9466146 145.224609,22.1914062 C144.593099,21.4361979 144.003906,21.0585938 143.457031,21.0585938 Z M130.742188,7.81640625 C129.960938,7.81640625 129.117839,8.69856771 128.212891,10.4628906 C127.307943,12.2272135 126.539714,14.5351562 125.908203,17.3867188 C125.276693,20.2382812 124.960938,23.0572917 124.960938,25.84375 L124.960938,26.8007812 C126.132812,26.3710938 127.220052,25.6028646 128.222656,24.4960938 C129.22526,23.3893229 130.039062,22.155599 130.664062,20.7949219 C131.289062,19.4342448 131.774089,18.0442708 132.119141,16.625 C132.464193,15.2057292 132.636719,13.8971354 132.636719,12.6992188 C132.636719,11.3059896 132.441406,10.1438802 132.050781,9.21289062 C131.660156,8.28190104 131.223958,7.81640625 130.742188,7.81640625 Z" id="myTodosLight-Copy" fill="#E6E6E6"></path>
            <path d="M7.75390625,0 C8.49609375,0 9.140625,0.159505208 9.6875,0.478515625 C10.234375,0.797526042 10.6608073,1.19466146 10.9667969,1.66992188 C11.2727865,2.14518229 11.5169271,2.74414062 11.6992188,3.46679688 C11.8815104,4.18945312 11.9986979,4.87630208 12.0507812,5.52734375 C12.1028646,6.17838542 12.1289062,6.9140625 12.1289062,7.734375 L12.1260313,8.1255 C12.1078229,9.43491667 12.003125,11.4174479 11.8119375,14.0730937 L11.5977648,16.9472928 C11.3073278,20.9268754 11.1263021,24.0147569 11.0546875,26.2109375 C11.8229167,21.5234375 12.9166667,17.2135417 14.3359375,13.28125 C15.7552083,9.34895833 17.3339844,6.24023438 19.0722656,3.95507813 C20.8105469,1.66992188 22.4934896,0.52734375 24.1210938,0.52734375 C25.7226562,0.52734375 26.8847656,1.33789062 27.6074219,2.95898438 C28.2986583,4.50959579 28.6593034,6.96263218 28.6893571,10.3180935 L28.6899115,11.2293726 C28.6769571,13.2632135 28.5797991,16.4927455 28.3984375,20.9179688 C29.3098958,17.6627604 30.4557292,14.514974 31.8359375,11.4746094 C33.2161458,8.43424479 34.6842448,5.90820312 36.2402344,3.89648438 C37.796224,1.88476563 39.1796875,0.87890625 40.390625,0.87890625 C41.5364583,0.87890625 42.3665365,1.31510417 42.8808594,2.1875 C43.3951823,3.05989583 43.6523438,4.45963542 43.6523438,6.38671875 C43.6523438,8.45847801 43.5083108,11.0806488 43.220245,14.2532311 L43.1054688,15.46875 C42.6106771,20.6119792 42.3632812,25.1367188 42.3632812,29.0429688 C42.3632812,31.0481771 42.5195312,32.9296875 42.8320312,34.6875 C43.1445312,36.4453125 43.5872396,37.6106771 44.1601562,38.1835938 C44.2252604,38.2356771 44.2838542,38.2421875 44.3359375,38.203125 C44.8177083,37.9557292 45.3515625,37.2851562 45.9375,36.1914062 C46.5234375,35.0976562 47.1289062,33.6425781 47.7539062,31.8261719 L48.5913086,29.3579102 C48.7141927,28.9892578 48.8287354,28.6419678 48.9349365,28.31604 L49.2285156,27.4023438 C49.4548493,26.6863063 49.708495,25.8532175 49.9894526,24.9030772 C49.9706045,24.4956982 49.9609375,24.0725414 49.9609375,23.6328125 C49.9609375,21.7317708 50.1236979,19.8697917 50.4492188,18.046875 C50.4882812,17.8255208 50.6347656,17.6269531 50.8886719,17.4511719 C51.1425781,17.2753906 51.4322917,17.1875 51.7578125,17.1875 C52.3697917,17.1875 52.8255208,17.3697917 53.125,17.734375 C53.3300781,17.9964193 53.4155273,18.2734172 53.3813477,18.5653687 L53.359375,18.6914062 C52.9817708,20.7486979 52.8059896,22.8125 52.8320312,24.8828125 C52.8320312,26.0416667 52.9329427,27.1354167 53.1347656,28.1640625 C53.3365885,29.1927083 53.5546875,29.8177083 53.7890625,30.0390625 C53.8541667,30.1041667 53.9453125,30.1106771 54.0625,30.0585937 C54.7265625,29.7200521 55.5110677,28.75 56.4160156,27.1484375 C57.3209635,25.546875 58.1217448,23.889974 58.8183594,22.1777344 C59.514974,20.4654948 60.0911458,18.8802083 60.546875,17.421875 L60.546875,17.4023438 L60.5664063,17.3632812 C60.6184896,17.2591146 60.6640625,17.1809896 60.703125,17.1289062 C60.9375,16.8164062 61.2630208,16.6471354 61.6796875,16.6210938 C62.0572917,16.6341146 62.4023438,16.7513021 62.7148438,16.9726562 C63.0273438,17.1940104 63.2486979,17.4869792 63.3789062,17.8515625 C64.1471354,20.2473958 64.5638021,23.3007812 64.6289062,27.0117187 C67.2070312,25.3450521 69.0820312,23.7304688 70.2539062,22.1679688 C70.4882812,21.8684896 70.7877604,21.8489583 71.1523438,22.109375 C71.5299479,22.3828125 71.6145833,22.6757812 71.40625,22.9882812 C70.0520833,25.0065104 67.7929688,26.9986979 64.6289062,28.9648438 C64.5117188,35.5533854 63.3919271,40.9505208 61.2695312,45.15625 C60.1236979,47.421875 58.7467448,49.140625 57.1386719,50.3125 C55.530599,51.484375 53.7434896,52.0703125 51.7773438,52.0703125 C50.8007812,52.0703125 49.9186198,51.8457031 49.1308594,51.3964844 C48.343099,50.9472656 47.718099,50.3678385 47.2558594,49.6582031 C46.7936198,48.9485677 46.4388021,48.1966146 46.1914062,47.4023438 C45.9440104,46.6080729 45.8203125,45.8333333 45.8203125,45.078125 C45.8203125,44.0494792 45.9667969,43.0533854 46.2597656,42.0898438 C46.5527344,41.1263021 46.9010417,40.2734375 47.3046875,39.53125 C47.7083333,38.7890625 48.3072917,38.0143229 49.1015625,37.2070312 L49.6807861,36.628418 C50.2435303,36.0766602 50.7568359,35.6054688 51.2207031,35.2148438 C51.7773438,34.7460938 52.5396484,34.1956055 53.5076172,33.5633789 L54.4863281,32.9363281 C55.2109375,32.4778646 55.8238932,32.1023437 56.3251953,31.8097656 L57.7612305,30.9936523 L61.8359375,28.7109375 L61.8359375,28.1445312 C61.8359375,25.5924479 61.6210938,23.0533854 61.1914062,20.5273438 L60.8419461,21.4847819 C59.5683006,24.9133301 58.3794488,27.4392361 57.2753906,29.0625 C56.0709635,30.8333333 54.8372396,31.71875 53.5742188,31.71875 C52.4414063,31.71875 51.5559896,31.0026042 50.9179688,29.5703125 C50.8064415,29.3199453 50.7046619,29.0528679 50.6126299,28.7690804 L50.3587468,29.6288146 C50.3170181,29.7677479 50.2755678,29.9044992 50.234375,30.0390625 C49.6484375,31.953125 49.0234375,33.6848958 48.359375,35.234375 C47.6953125,36.7838542 47.0052083,37.9329427 46.2890625,38.6816406 C45.5729167,39.4303385 44.8111979,39.8046875 44.0039062,39.8046875 C43.2356771,39.8046875 42.5585937,39.5019531 41.9726562,38.8964844 C41.3867188,38.2910156 40.9342448,37.5423177 40.6152344,36.6503906 C40.296224,35.7584635 40.0390625,34.6940104 39.84375,33.4570312 C39.6484375,32.2200521 39.5214844,31.0839844 39.4628906,30.0488281 C39.4042969,29.0136719 39.375,27.9361979 39.375,26.8164062 C39.375,22.6236979 39.7070312,17.1158854 40.3710938,10.2929688 L40.6020937,7.68596875 C40.7345521,6.10001042 40.8007812,5.06796875 40.8007812,4.58984375 C40.8007812,3.67838542 40.7356771,3.0859375 40.6054688,2.8125 L40.5664062,2.75390625 C40.5403646,2.75390625 40.5172164,2.75969329 40.4969618,2.77126736 L40.46875,2.79296875 C39.375,3.52213542 38.2877604,4.62890625 37.2070312,6.11328125 C36.1263021,7.59765625 35.139974,9.26757812 34.2480469,11.1230469 C33.3561198,12.9785156 32.5,15.0423177 31.6796875,17.3144531 C30.859375,19.5865885 30.1334635,21.8457031 29.5019531,24.0917969 C28.8704427,26.3378906 28.3072917,28.6197917 27.8125,30.9375 L27.8100586,30.9643555 L27.8027344,31.0058594 C27.796224,31.0384115 27.7929688,31.0611979 27.7929688,31.0742188 C27.7408854,31.4908854 27.5813802,31.8098958 27.3144531,32.03125 C27.047526,32.2526042 26.7513021,32.3502604 26.4257812,32.3242188 C26.0872396,32.2981771 25.797526,32.1516927 25.5566406,31.8847656 C25.3157552,31.6178385 25.1953125,31.2304688 25.1953125,30.7226562 L25.2078125,29.3742188 C25.2383681,27.4912326 25.3249421,24.7469618 25.4675347,21.1414063 L25.6671875,16.0369141 C25.7692708,13.1776693 25.8203125,11.0872396 25.8203125,9.765625 C25.8203125,8.203125 25.7519531,6.83919271 25.6152344,5.67382812 C25.4785156,4.50846354 25.3125,3.65234375 25.1171875,3.10546875 C24.921875,2.55859375 24.7070312,2.28515625 24.4726562,2.28515625 C23.4179688,2.28515625 22.2428385,3.09570312 20.9472656,4.71679688 C19.6516927,6.33789062 18.3984375,8.54166667 17.1875,11.328125 C15.7421875,14.7005208 14.5247396,18.6002604 13.5351562,23.0273438 C12.6216947,27.1138822 11.9578634,31.4167668 11.5436622,35.9359976 L11.4453125,37.0703125 C11.3802083,37.9427083 11.2434896,38.5416667 11.0351562,38.8671875 C10.7617187,39.2578125 10.390625,39.453125 9.921875,39.453125 C9.7265625,39.4661458 9.55403646,39.4140625 9.40429688,39.296875 C9.25455729,39.1796875 9.14713542,39.0299479 9.08203125,38.8476562 C8.46953125,36.8226563 8.15103125,33.7476562 8.12653125,29.6226562 L8.125,29.1015625 C8.125,24.4140625 8.37625519,19.0546009 8.87876558,13.0231778 L9.08601722,10.555157 C9.23960991,8.63123288 9.31640625,7.30034722 9.31640625,6.5625 C9.31640625,3.34635417 8.89322917,1.73828125 8.046875,1.73828125 C7.109375,1.73828125 5.90169271,2.39583333 4.42382812,3.7109375 C2.94596354,5.02604167 1.9921875,6.34765625 1.5625,7.67578125 C1.55381944,7.67578125 1.55092593,7.67867477 1.55381944,7.68446181 L1.5625,7.6953125 C1.69270833,7.890625 1.71223958,8.0859375 1.62109375,8.28125 C1.49088542,8.52864583 1.2890625,8.65234375 1.015625,8.65234375 C0.729166667,8.65234375 0.48828125,8.54492188 0.29296875,8.33007812 C0.09765625,8.11523438 0,7.84505208 0,7.51953125 C0,6.68619792 0.455729167,5.66731771 1.3671875,4.46289062 C2.27864583,3.25846354 3.35611979,2.21354167 4.59960938,1.328125 C5.84309896,0.442708333 6.89453125,0 7.75390625,0 Z M61.7773438,30.6445312 L60.5750868,31.3194444 C60.3609664,31.4380787 60.1888021,31.5321181 60.0585938,31.6015625 L58.3500139,32.5667992 C58.0193309,32.7554087 57.7213156,32.9267597 57.455968,33.0808524 L56.9140625,33.3984375 C56.28125,33.7734375 55.4665039,34.2829102 54.4698242,34.9268555 L54.1308594,35.1464844 C52.9785156,35.8951823 52.1028646,36.5690104 51.5039062,37.1679688 C50.9049479,37.7669271 50.2766927,38.4733073 49.6191406,39.2871094 C48.9615885,40.1009115 48.4928385,40.9602865 48.2128906,41.8652344 C47.9329427,42.7701823 47.7929688,43.7369792 47.7929688,44.765625 C47.7929688,45.6640625 47.9622396,46.546224 48.3007812,47.4121094 C48.6393229,48.2779948 49.1308594,48.9973958 49.7753906,49.5703125 C50.4199219,50.1432292 51.1328125,50.4296875 51.9140625,50.4296875 C53.6458333,50.4296875 55.234375,49.5800781 56.6796875,47.8808594 C58.125,46.1816406 59.2936198,43.828125 60.1855469,40.8203125 C61.077474,37.8125 61.6080729,34.4205729 61.7773438,30.6445312 Z M125.3125,0.1953125 C126.601562,0.1953125 127.578125,0.7421875 128.242188,1.8359375 C128.90625,2.9296875 129.238281,4.52473958 129.238281,6.62109375 C129.238281,8.24869792 129.013672,9.91536458 128.564453,11.6210938 C128.115234,13.3268229 127.5,14.9121094 126.71875,16.3769531 C125.9375,17.8417969 124.960938,19.1210938 123.789062,20.2148438 C122.617188,21.3085937 121.360677,22.03125 120.019531,22.3828125 C120.136719,24.4401042 120.39388,26.2727865 120.791016,27.8808594 C121.188151,29.4889323 121.656901,30.7421875 122.197266,31.640625 C122.73763,32.5390625 123.28776,33.2161458 123.847656,33.671875 C124.407552,34.1276042 124.947917,34.3554688 125.46875,34.3554688 C126.835938,34.3554688 128.258464,33.2552083 129.736328,31.0546875 C130.88875,29.3387463 131.825418,27.3258957 132.546332,25.0161358 C132.527743,24.7209728 132.519531,24.4230121 132.519531,24.1210938 C132.519531,22.8710938 132.636719,21.9954427 132.871094,21.4941406 C133.105469,20.9928385 133.509115,20.7421875 134.082031,20.7421875 C134.746094,20.7421875 135.227865,20.9244792 135.527344,21.2890625 C135.527344,21.3020833 135.533854,21.3151042 135.546875,21.328125 L135.585938,21.3671875 C135.729167,21.5755208 135.78125,21.8033854 135.742188,22.0507812 C135.585938,22.9882812 135.507812,23.9257812 135.507812,24.8632812 C135.507812,26.0091146 135.664062,27.1451823 135.976562,28.2714844 C136.289062,29.3977865 136.692708,30.3125 137.1875,31.015625 C137.682292,31.71875 138.183594,32.0703125 138.691406,32.0703125 C139.433594,32.0703125 140.198568,31.2890625 140.986328,29.7265625 C141.774089,28.1640625 142.265625,26.3867188 142.460938,24.3945312 C141.054688,24.2252604 139.752604,23.8802083 138.554688,23.359375 C137.356771,22.8385417 136.393229,22.1484375 135.664062,21.2890625 C134.713542,20.1822917 134.251302,18.9192708 134.277344,17.5 C134.277344,16.2760417 134.641927,15.2832031 135.371094,14.5214844 C136.10026,13.7597656 137.044271,13.3789063 138.203125,13.3789063 C139.986979,13.3789063 141.468099,14.280599 142.646484,16.0839844 C143.82487,17.8873698 144.427083,20.1822917 144.453125,22.96875 L144.570312,22.96875 C145.481771,22.96875 146.484375,22.8776042 147.578125,22.6953125 C148.256836,22.582194 148.86786,22.4490201 149.411196,22.2957907 C149.229873,21.8176218 149.140625,21.3191179 149.140625,20.8007812 C149.140625,19.8632812 149.514974,18.922526 150.263672,17.9785156 C151.01237,17.0345052 151.972656,16.2630208 153.144531,15.6640625 C154.316406,15.0651042 155.488281,14.765625 156.660156,14.765625 C157.845052,14.765625 158.880208,15.0878906 159.765625,15.7324219 C160.651042,16.3769531 161.09375,17.1354167 161.09375,18.0078125 C161.09375,18.5026042 160.970052,19.0039062 160.722656,19.5117188 C160.47526,20.0195312 160.188802,20.2734375 159.863281,20.2734375 C159.667969,20.2734375 159.492188,20.1822917 159.335938,20 C159.153646,19.7526042 159.101562,19.4726562 159.179688,19.1601562 C159.179688,19.1210938 159.186198,19.0755208 159.199219,19.0234375 C159.21224,18.9713542 159.22526,18.9257812 159.238281,18.8867188 C159.303385,18.6393229 159.348958,18.3658854 159.375,18.0664062 C159.375,17.7539062 159.235026,17.4772135 158.955078,17.2363281 C158.67513,16.9954427 158.28776,16.875 157.792969,16.875 C157.141927,16.875 156.363932,17.125651 155.458984,17.6269531 C154.554036,18.1282552 153.759766,18.7760417 153.076172,19.5703125 C152.392578,20.3645833 152.050781,21.1197917 152.050781,21.8359375 C152.050781,22.2005208 152.141927,22.5423177 152.324219,22.8613281 C152.50651,23.1803385 152.802734,23.4928385 153.212891,23.7988281 C153.623047,24.1048177 153.990885,24.3522135 154.316406,24.5410156 L154.743042,24.7822571 C154.905396,24.8722839 155.087891,24.9719238 155.290527,25.0811768 L156.519531,25.7396484 C157.084635,26.0486328 157.522135,26.3033854 157.832031,26.5039062 L158.339844,26.1914062 C160.097656,25.0716146 161.884766,24.1178385 163.701172,23.3300781 C165.517578,22.5423177 166.979167,22.0507812 168.085938,21.8554688 C168.307292,21.8033854 168.515625,21.8326823 168.710938,21.9433594 C168.90625,22.0540365 169.029948,22.2200521 169.082031,22.4414063 C169.134115,22.6367188 169.121094,22.7994792 169.042969,22.9296875 C168.951823,23.0859375 168.821615,23.1835938 168.652344,23.2226562 C165.019531,24.3945312 161.855469,25.8398438 159.160156,27.5585938 C160.045573,28.4179688 160.488281,29.375 160.488281,30.4296875 C160.488281,31.8229167 159.899089,33.1119792 158.720703,34.296875 C157.542318,35.4817708 156.119792,36.0742188 154.453125,36.0742188 C153.658854,36.0742188 153.014323,35.8496094 152.519531,35.4003906 C152.02474,34.9511719 151.777344,34.4401042 151.777344,33.8671875 C151.777344,31.9921875 153.248698,29.9283854 156.191406,27.6757813 C155.800781,27.4414062 155.371094,27.2070312 154.902344,26.9726562 C154.876302,26.9552951 154.840133,26.9350405 154.793837,26.9118924 L154.482422,26.7675781 C154.410807,26.735026 154.342448,26.6992188 154.277344,26.6601562 C153.58724,26.2955729 152.978516,25.9375 152.451172,25.5859375 C151.923828,25.234375 151.386719,24.8144531 150.839844,24.3261719 C150.593733,24.1064303 150.373334,23.8754812 150.178647,23.6333245 C148.695083,24.1838189 146.760018,24.4702058 144.375,24.4921875 C144.283854,25.5598958 144.085286,26.624349 143.779297,27.6855469 C143.473307,28.7467448 143.085938,29.7298177 142.617188,30.6347656 C142.148438,31.5397135 141.559245,32.2753906 140.849609,32.8417969 C140.139974,33.4082031 139.375,33.6914062 138.554688,33.6914062 C137.460938,33.6914062 136.451823,33.264974 135.527344,32.4121094 C134.602865,31.5592448 133.870443,30.3971354 133.330078,28.9257812 C133.227952,28.6477024 133.135476,28.3649725 133.052651,28.0775917 C132.831316,28.6105073 132.5817,29.1668852 132.304688,29.7460938 C131.731771,30.9440104 131.119792,31.9759115 130.46875,32.8417969 C129.817708,33.7076823 129.029948,34.4335938 128.105469,35.0195312 C127.18099,35.6054688 126.210938,35.8984375 125.195312,35.8984375 C124.075521,35.8984375 123.024089,35.5403646 122.041016,34.8242188 C121.057943,34.1080729 120.201823,33.0794271 119.472656,31.7382812 C118.720703,30.3537326 118.154749,28.7394206 117.774794,26.8953451 L117.675,26.387 L117.29552,27.4629305 C117.136081,27.9061703 116.989397,28.3026414 116.855469,28.6523438 C116.621094,29.2643229 116.350911,29.8893229 116.044922,30.5273438 C115.738932,31.1653646 115.442708,31.6731771 115.15625,32.0507812 C114.869792,32.4283854 114.544271,32.7376302 114.179688,32.9785156 C113.815104,33.219401 113.4375,33.3398438 113.046875,33.3398438 C111.979167,33.3398438 111.057943,32.6920573 110.283203,31.3964844 C109.508464,30.1009115 109.121094,28.5677083 109.121094,26.796875 C109.121094,25.7320759 109.228595,24.755293 109.443596,23.8665264 C108.071699,24.2654098 106.374871,24.4735755 104.355469,24.4921875 C104.264323,25.5598958 104.065755,26.624349 103.759766,27.6855469 C103.453776,28.7467448 103.066406,29.7298177 102.597656,30.6347656 C102.128906,31.5397135 101.539714,32.2753906 100.830078,32.8417969 C100.120443,33.4082031 99.3554688,33.6914062 98.5351562,33.6914062 C97.4414062,33.6914062 96.4322917,33.264974 95.5078125,32.4121094 C94.5833333,31.5592448 93.8509115,30.3971354 93.3105469,28.9257812 L93.217,28.659 L93.1365593,28.9656409 C92.9261001,29.7500797 92.7204241,30.4268973 92.5195312,30.9960938 C92.2851562,31.6601562 92.014974,32.3177083 91.7089844,32.96875 C91.4029948,33.6197917 91.0904948,34.140625 90.7714844,34.53125 C90.452474,34.921875 90.0911458,35.2376302 89.6875,35.4785156 C89.2838542,35.719401 88.8606771,35.8398438 88.4179688,35.8398438 C86.6471354,35.8398438 85.2311198,34.3977865 84.1699219,31.5136719 C83.108724,28.6295573 82.578125,24.765625 82.578125,19.921875 C82.578125,17.6822917 82.6757812,15.390625 82.8710938,13.046875 C81.1783854,13.2421875 79.609375,13.3463542 78.1640625,13.359375 C76.40625,13.359375 74.7688802,13.1705729 73.2519531,12.7929688 C71.735026,12.4153646 70.7747396,11.8359375 70.3710938,11.0546875 C70.2669271,10.8854167 70.234375,10.703125 70.2734375,10.5078125 C70.3125,10.3125 70.4166667,10.15625 70.5859375,10.0390625 C70.703125,9.94791667 70.8333333,9.91210938 70.9765625,9.93164062 C71.1197917,9.95117188 71.2434896,10.0130208 71.3476562,10.1171875 C71.8164062,10.6510417 72.7408854,11.0872396 74.1210938,11.4257812 C75.3841146,11.7122396 76.6861979,11.8554688 78.0273438,11.8554688 C79.6419271,11.8424479 81.3085938,11.7317708 83.0273438,11.5234375 L83.1125217,10.7165527 C83.4268302,7.84301758 83.7630208,5.90494792 84.1210938,4.90234375 C84.3294271,4.31640625 84.7135417,4.0234375 85.2734375,4.0234375 C85.8463542,4.0234375 86.2695312,4.19270833 86.5429688,4.53125 C86.7643229,4.81770833 86.8359375,5.13671875 86.7578125,5.48828125 C86.4453125,7.02473958 86.1588542,8.91276042 85.8984375,11.1523438 C86.8619792,11.0221354 87.7994792,10.8854167 88.7109375,10.7421875 L90.5614895,10.4797363 C92.7240555,10.1859538 94.1970486,10.0390625 94.9804688,10.0390625 C97.3372396,10.0390625 98.8997396,10.5794271 99.6679688,11.6601562 C99.8763021,11.9335938 99.9088542,12.2265625 99.765625,12.5390625 C99.6614583,12.7864583 99.4726562,12.9231771 99.1992188,12.9492188 C98.8997396,12.9492188 98.6783854,12.8190104 98.5351562,12.5585938 C98.0924479,11.9075521 96.9661458,11.5820312 95.15625,11.5820312 L94.9091624,11.5863073 C93.8339035,11.6205159 91.7157452,11.859976 88.5546875,12.3046875 L87.8276467,12.4099171 L85.8486938,12.6795959 C85.8102417,12.6851908 85.7747396,12.6904297 85.7421875,12.6953125 C85.46875,15.390625 85.3320312,18.0078125 85.3320312,20.546875 C85.3320312,22.9427083 85.4882812,25.2050781 85.8007812,27.3339844 C86.1132812,29.4628906 86.5299479,31.1621094 87.0507812,32.4316406 C87.5716146,33.7011719 88.125,34.3359375 88.7109375,34.3359375 C89.3098958,34.3359375 90.0292969,33.2063802 90.8691406,30.9472656 C91.4904838,29.2759005 92.0459026,27.3497462 92.5353969,25.1688028 C92.5113482,24.8254574 92.5,24.4760101 92.5,24.1210938 C92.5,22.8710938 92.6171875,21.9954427 92.8515625,21.4941406 C93.0859375,20.9928385 93.4895833,20.7421875 94.0625,20.7421875 C94.7265625,20.7421875 95.2083333,20.9244792 95.5078125,21.2890625 C95.5078125,21.3020833 95.5143229,21.3151042 95.5273438,21.328125 L95.5664062,21.3671875 C95.7096354,21.5755208 95.7617188,21.8033854 95.7226562,22.0507812 C95.5664062,22.9882812 95.4882812,23.9257812 95.4882812,24.8632812 C95.4882812,26.0091146 95.6445312,27.1451823 95.9570312,28.2714844 C96.2695312,29.3977865 96.6731771,30.3125 97.1679688,31.015625 C97.6627604,31.71875 98.1640625,32.0703125 98.671875,32.0703125 C99.4140625,32.0703125 100.179036,31.2890625 100.966797,29.7265625 C101.754557,28.1640625 102.246094,26.3867188 102.441406,24.3945312 C101.035156,24.2252604 99.7330729,23.8802083 98.5351562,23.359375 C97.3372396,22.8385417 96.3736979,22.1484375 95.6445312,21.2890625 C94.6940104,20.1822917 94.2317708,18.9192708 94.2578125,17.5 C94.2578125,16.2760417 94.6223958,15.2832031 95.3515625,14.5214844 C96.0807292,13.7597656 97.0247396,13.3789063 98.1835938,13.3789063 C99.9674479,13.3789063 101.448568,14.280599 102.626953,16.0839844 C103.805339,17.8873698 104.407552,20.1822917 104.433594,22.96875 L104.550781,22.96875 C105.46224,22.96875 106.464844,22.8776042 107.558594,22.6953125 C108.541349,22.5315199 109.38219,22.3256786 110.081116,22.0777885 C110.255875,21.7123214 110.457462,21.3685735 110.683594,21.0449219 C111.72526,19.5540365 113.072917,18.8085938 114.726562,18.8085938 C115.625,18.8085938 116.458333,19.0364583 117.226562,19.4921875 C117.34375,14.4791667 118.092448,10.1302083 119.472656,6.4453125 C120.227865,4.42708333 121.110026,2.88085937 122.119141,1.80664062 C123.128255,0.732421875 124.192708,0.1953125 125.3125,0.1953125 Z M157.480469,28.75 C155.071615,30.625 153.867188,32.3958333 153.867188,34.0625 C153.867188,34.140625 153.886719,34.1992188 153.925781,34.2382812 C153.951823,34.2643229 153.997396,34.2773438 154.0625,34.2773438 C154.960938,34.2122396 155.826823,33.7207031 156.660156,32.8027344 C157.49349,31.8847656 157.910156,30.9635417 157.910156,30.0390625 C157.910156,29.5442708 157.766927,29.1145833 157.480469,28.75 Z M115.15625,20.4492188 C114.466146,20.4492188 113.75651,21.0384115 113.027344,22.2167969 C112.298177,23.3951823 111.933594,25.0325521 111.933594,27.1289062 C111.933594,28.1054688 112.060547,29.0136719 112.314453,29.8535156 C112.568359,30.6933594 112.864583,31.3020833 113.203125,31.6796875 C113.242188,31.71875 113.28776,31.71875 113.339844,31.6796875 C114.016927,31.0807292 114.716797,29.8339844 115.439453,27.9394531 C116.162109,26.0449219 116.751302,24.0625 117.207031,21.9921875 C116.998698,21.5755208 116.689453,21.2141927 116.279297,20.9082031 C115.869141,20.6022135 115.494792,20.4492188 115.15625,20.4492188 Z M98.4375,15.0585938 C97.8776042,15.0585938 97.421875,15.3385417 97.0703125,15.8984375 C96.71875,16.4583333 96.5429688,17.0898438 96.5429688,17.7929688 C96.5429688,19.1210938 97.109375,20.2213542 98.2421875,21.09375 C99.375,21.9661458 100.800781,22.5390625 102.519531,22.8125 C102.50651,21.6145833 102.275391,20.4003906 101.826172,19.1699219 C101.376953,17.9394531 100.836589,16.9466146 100.205078,16.1914062 C99.5735677,15.4361979 98.984375,15.0585938 98.4375,15.0585938 Z M138.457031,15.0585938 C137.897135,15.0585938 137.441406,15.3385417 137.089844,15.8984375 C136.738281,16.4583333 136.5625,17.0898438 136.5625,17.7929688 C136.5625,19.1210938 137.128906,20.2213542 138.261719,21.09375 C139.394531,21.9661458 140.820312,22.5390625 142.539062,22.8125 C142.526042,21.6145833 142.294922,20.4003906 141.845703,19.1699219 C141.396484,17.9394531 140.85612,16.9466146 140.224609,16.1914062 C139.593099,15.4361979 139.003906,15.0585938 138.457031,15.0585938 Z M125.742188,1.81640625 C124.960938,1.81640625 124.117839,2.69856771 123.212891,4.46289062 C122.307943,6.22721354 121.539714,8.53515625 120.908203,11.3867188 C120.276693,14.2382812 119.960938,17.0572917 119.960938,19.84375 L119.960938,20.8007812 C121.132812,20.3710938 122.220052,19.6028646 123.222656,18.4960938 C124.22526,17.3893229 125.039062,16.155599 125.664062,14.7949219 C126.289062,13.4342448 126.774089,12.0442708 127.119141,10.625 C127.464193,9.20572917 127.636719,7.89713542 127.636719,6.69921875 C127.636719,5.30598958 127.441406,4.14388021 127.050781,3.21289062 C126.660156,2.28190104 126.223958,1.81640625 125.742188,1.81640625 Z" id="myTodosLight" fill="#444444"></path>
        </g>
    </g>
</svg>