<?xml version="1.0" encoding="UTF-8"?>
<svg width="94px" height="75px" viewBox="0 0 94 75" version="1.1" xmlns="http://www.w3.org/2000/svg" xmlns:xlink="http://www.w3.org/1999/xlink">
    <title>pencilLight</title>
    <g id="Page-1" stroke="none" stroke-width="1" fill="none" fill-rule="evenodd">
        <g id="pencilLight" transform="translate(0, 0.8897)">
            <line x1="0.5" y1="68.6102838" x2="34.5" y2="68.6102838" id="Line" stroke="#A5A5A5" stroke-linecap="round" stroke-linejoin="round"></line>
            <g id="Group" transform="translate(61.1228, 36.7734) rotate(40) translate(-61.1228, -36.7734)translate(53.9673, -5.2266)" fill="#A5A5A5">
                <path d="M1.24436064,69.0665902 L13.0665956,69.0665902 L13.0665956,16.7996558 L1.24436064,16.7996558 L1.24436064,69.0665902 Z M13.6890601,70.3115191 L0.621896188,70.3115191 C0.278823615,70.3115191 5.43652834e-06,70.0332746 5.43652834e-06,69.6890546 L5.43652834e-06,16.177765 C5.43652834e-06,15.8341188 0.278823615,15.5553006 0.621896188,15.5553006 L13.6890601,15.5553006 C14.0327063,15.5553006 14.3109508,15.8341188 14.3109508,16.177765 L14.3109508,69.6890546 C14.3109508,70.0332746 14.0327063,70.3115191 13.6890601,70.3115191 L13.6890601,70.3115191 Z" id="Fill-20" transform="translate(7.1555, 42.9334) scale(-1, 1) translate(-7.1555, -42.9334)"></path>
                <path d="M5.28951902,69.0665902 L9.02315833,69.0665902 L9.02315833,16.7996558 L5.28951902,16.7996558 L5.28951902,69.0665902 Z M9.64504908,70.3115191 L4.66705457,70.3115191 C4.3234083,70.3115191 4.04459012,70.0332746 4.04459012,69.6890546 L4.04459012,16.177765 C4.04459012,15.8341188 4.3234083,15.5553006 4.66705457,15.5553006 L9.64504908,15.5553006 C9.98869535,15.5553006 10.2669398,15.8341188 10.2669398,16.177765 L10.2669398,69.6890546 C10.2669398,70.0332746 9.98869535,70.3115191 9.64504908,70.3115191 L9.64504908,70.3115191 Z" id="Fill-22" transform="translate(7.1558, 42.9334) scale(-1, 1) translate(-7.1558, -42.9334)"></path>
                <path d="M1.60884739,70.3115191 L7.15537855,81.9335328 L12.7024834,70.3115191 L1.60884739,70.3115191 Z M7.15537855,84 C6.91557197,84 6.69756599,83.862312 6.5943,83.6460271 L0.0610049097,69.9569725 C-0.031360783,69.7642093 -0.0181656841,69.5375978 0.096000607,69.3574561 C0.209593198,69.1767406 0.408667082,69.0665902 0.622083466,69.0665902 L13.6892473,69.0665902 C13.9026637,69.0665902 14.1011639,69.1767406 14.2153302,69.3574561 C14.3289228,69.5375978 14.3426916,69.7642093 14.2503259,69.9569725 L7.71703081,83.6460271 C7.61376482,83.862312 7.39518513,84 7.15537855,84 L7.15537855,84 Z" id="Fill-24" transform="translate(7.1556, 76.5333) scale(-1, 1) translate(-7.1556, -76.5333)"></path>
                <path d="M1.24436064,9.95541532 L13.0665956,9.95541532 L13.0665956,4.97742081 C13.0665956,2.91898537 11.3919654,1.2443552 9.3329563,1.2443552 L4.97742625,1.2443552 C2.91899081,1.2443552 1.24436064,2.91898537 1.24436064,4.97742081 L1.24436064,9.95541532 Z M13.6890601,11.1997705 L0.621896188,11.1997705 C0.278823615,11.1997705 5.43652839e-06,10.921526 5.43652839e-06,10.5778798 L5.43652839e-06,4.97742081 C5.43652839e-06,2.23284022 2.23284566,0 4.97742625,0 L9.3329563,0 C12.0781106,0 14.3109508,2.23284022 14.3109508,4.97742081 L14.3109508,10.5778798 C14.3109508,10.921526 14.0327063,11.1997705 13.6890601,11.1997705 L13.6890601,11.1997705 Z" id="Fill-26" transform="translate(7.1555, 5.5999) scale(-1, 1) translate(-7.1555, -5.5999)"></path>
                <path d="M1.24436064,15.5553006 L13.0665956,15.5553006 L13.0665956,11.1997705 L1.24436064,11.1997705 L1.24436064,15.5553006 Z M13.6890601,16.7996558 L0.621896188,16.7996558 C0.278823615,16.7996558 5.43652839e-06,16.5214113 5.43652839e-06,16.177765 L5.43652839e-06,10.5778798 C5.43652839e-06,10.2336598 0.278823615,9.95541532 0.621896188,9.95541532 L13.6890601,9.95541532 C14.0327063,9.95541532 14.3109508,10.2336598 14.3109508,10.5778798 L14.3109508,16.177765 C14.3109508,16.5214113 14.0327063,16.7996558 13.6890601,16.7996558 L13.6890601,16.7996558 Z" id="Fill-28" transform="translate(7.1555, 13.3775) scale(-1, 1) translate(-7.1555, -13.3775)"></path>
                <polyline id="Fill-29" transform="translate(7.1555, 79.956) scale(-1, 1) translate(-7.1555, -79.956)" points="10.4224125 76.5338688 7.15519127 83.3781092 3.88854373 76.5338688 10.4224125 76.5338688"></polyline>
            </g>
        </g>
    </g>
</svg>